<?xml version="1.0" standalone="no"?>
<!DOCTYPE svg PUBLIC "-//W3C//DTD SVG 20010904//EN"
 "http://www.w3.org/TR/2001/REC-SVG-20010904/DTD/svg10.dtd">
<svg version="1.0" xmlns="http://www.w3.org/2000/svg"
 width="1268.000000pt" height="1268.000000pt" viewBox="0 0 1268.000000 1268.000000"
 preserveAspectRatio="xMidYMid meet">

<g transform="translate(0.000000,1268.000000) scale(0.100000,-0.100000)"
fill="#000000" stroke="none">
<path d="M0 12575 l0 -105 183 -2 182 -3 0 -705 0 -705 -182 -3 -183 -2 0
-139 0 -139 43 -6 c23 -3 470 -5 992 -4 l950 1 140 -106 c230 -173 243 -190
266 -342 6 -38 17 -108 26 -155 8 -47 21 -120 29 -162 13 -74 82 -295 138
-442 14 -37 26 -70 26 -72 0 -2 -221 -4 -492 -4 -475 0 -491 1 -475 18 10 10
15 21 12 23 -2 3 -16 64 -30 137 -34 173 -25 231 34 233 l26 0 -25 17 c-14 9
-34 27 -46 40 -12 12 -23 22 -25 22 -2 0 -3 -53 -1 -118 4 -115 3 -118 -22
-141 -25 -23 -26 -30 -26 -127 l0 -102 -39 -4 c-56 -5 -92 14 -141 72 -46 55
-44 54 -121 35 -25 -6 -29 -2 -59 54 -36 67 -68 95 -156 139 -68 34 -117 51
-194 67 -35 7 -56 16 -58 26 -1 8 13 35 31 60 61 79 77 118 77 186 0 52 -4 66
-26 93 -32 37 -65 55 -121 65 -42 7 -148 -9 -157 -24 -3 -4 15 -32 39 -62 52
-63 54 -80 21 -175 -54 -158 -74 -173 -140 -105 l-38 39 8 144 c18 302 -3 499
-54 498 -27 -1 -35 -26 -47 -143 -17 -168 -22 -174 -73 -102 -17 24 -49 53
-71 65 -50 25 -132 26 -181 2 l-35 -17 -3 -332 -2 -333 39 -39 c28 -28 57 -45
98 -57 73 -21 127 -10 219 46 36 22 72 40 79 40 10 0 14 -28 17 -112 2 -62 2
-116 0 -120 -2 -5 -104 -8 -228 -8 l-224 0 0 -150 0 -150 334 0 333 0 6 -67
c4 -38 7 -122 7 -188 0 -140 13 -113 -145 -305 -181 -220 -296 -401 -192 -303
45 43 239 143 392 201 141 54 403 142 424 142 7 0 40 -20 75 -44 75 -54 193
-96 270 -96 49 0 56 -2 56 -20 0 -31 -31 -40 -167 -50 -82 -6 -129 -13 -134
-21 -4 -7 -11 -36 -14 -64 -5 -40 -67 -257 -93 -324 -6 -16 144 63 243 129 93
62 153 95 161 88 6 -6 -51 -194 -79 -260 l-16 -38 -730 0 -731 0 0 -1720 0
-1720 179 0 179 0 3 -32 c2 -18 3 -315 1 -660 l-2 -628 -180 0 -180 0 0 -1600
0 -1600 6340 0 6340 0 0 6340 0 6340 -6340 0 -6340 0 0 -105z m1766 -111 c38
-5 54 -12 65 -29 8 -13 33 -44 57 -69 24 -26 42 -54 40 -63 -2 -10 -22 -31
-46 -47 l-43 -31 -32 19 c-115 69 -161 78 -234 46 -29 -12 -59 -30 -68 -40
-17 -18 -16 -19 20 -13 35 6 37 5 26 -14 -15 -28 -68 -72 -96 -79 -46 -11 -79
0 -94 31 -18 38 -29 46 -66 44 -49 -2 -53 0 -59 26 -8 32 -70 102 -108 121
-26 14 -34 13 -74 -2 -38 -14 -51 -28 -88 -88 -84 -138 -119 -202 -151 -281
-25 -63 -39 -84 -64 -99 -32 -18 -33 -18 -59 1 -25 19 -27 26 -26 92 l2 71
-55 0 -54 0 6 -47 c4 -27 13 -73 21 -104 19 -78 18 -109 -3 -109 -13 -1 -5
-13 27 -40 25 -22 49 -40 54 -40 4 0 27 15 49 32 23 18 49 31 59 30 15 -3 18
4 18 36 0 39 35 107 55 107 5 0 16 -12 23 -27 18 -39 36 -35 65 15 23 39 175
198 197 205 6 2 23 -10 39 -27 25 -26 113 -74 172 -94 12 -4 16 -19 17 -65 0
-71 10 -122 23 -122 15 0 169 102 283 188 129 98 118 92 236 131 52 18 114 41
138 53 23 12 45 18 49 15 10 -10 -13 -53 -64 -121 -51 -67 -70 -86 -90 -86
-27 0 -11 38 37 89 28 30 49 56 46 58 -10 10 -147 -69 -163 -94 -13 -20 -18
-49 -19 -105 -1 -88 -10 -104 -62 -114 -26 -5 -53 -23 -90 -61 -43 -44 -57
-52 -77 -47 -26 6 -25 7 -56 -74 -12 -34 -91 -122 -109 -122 -5 0 -9 8 -8 18
4 55 -15 86 -28 45 -15 -47 -33 -69 -78 -97 -48 -30 -49 -31 -22 -34 20 -3 26
-8 22 -19 -22 -55 -20 -61 44 -120 65 -60 96 -82 118 -83 22 0 61 50 73 94 13
47 94 130 224 229 94 72 239 193 346 289 42 37 81 68 87 68 21 0 13 -26 -19
-66 -37 -46 -69 -107 -69 -130 0 -28 23 -1 54 63 17 37 40 66 61 80 38 25 43
45 33 125 -8 57 -69 195 -109 247 -25 31 -24 44 2 30 17 -8 23 -8 29 2 14 22
-34 77 -63 70 -4 0 -10 6 -13 14 -4 8 -10 15 -15 15 -4 0 -19 9 -31 21 -13 11
-36 31 -53 44 -16 13 -28 26 -25 29 7 6 519 11 525 4 12 -12 26 -397 32 -870
l6 -538 -1046 0 -1047 0 -2 698 c-2 385 1 703 6 710 7 9 143 12 625 12 339 0
639 -3 667 -6z m7517 -695 c4 -380 5 -695 2 -700 -4 -5 -527 -9 -1326 -9
l-1319 0 0 700 0 700 1318 0 1319 0 6 -691z m-6423 667 c0 -7 -13 -19 -28 -25
-26 -11 -92 -84 -92 -102 0 -4 -5 -20 -11 -35 l-10 -28 -19 30 c-15 22 -20 47
-20 102 l0 72 90 0 c70 0 90 -3 90 -14z m1678 7 c-10 -2 -26 -2 -35 0 -10 3
-2 5 17 5 19 0 27 -2 18 -5z m85 0 c-7 -2 -19 -2 -25 0 -7 3 -2 5 12 5 14 0
19 -2 13 -5z m-1347 -748 c1 -449 -2 -625 -10 -626 -6 0 -119 0 -251 0 l-240
1 -3 61 c-2 41 2 73 13 95 9 19 17 34 19 34 1 0 3 -17 4 -37 0 -30 -2 -34 -8
-18 -6 13 -8 -3 -8 -50 0 -38 2 -62 5 -53 4 16 6 15 22 -1 15 -15 38 -18 148
-20 141 -2 183 3 183 25 0 8 8 14 18 14 25 0 62 36 63 63 1 17 3 16 9 -8 4
-16 7 130 7 325 0 195 -3 335 -7 310 -6 -45 -6 -45 -11 -11 -5 39 -28 53 -36
22 -3 -12 -9 -21 -13 -21 -11 0 -64 79 -57 86 3 3 12 -3 19 -15 7 -12 17 -21
22 -21 6 0 5 5 -2 12 -7 7 -12 19 -12 27 0 13 2 14 9 2 7 -11 11 -9 20 8 12
22 36 19 28 -3 -3 -7 -1 -19 5 -27 8 -11 9 -10 4 4 -3 9 -1 17 5 17 6 0 8 23
5 63 -7 92 -8 95 -16 62 l-8 -30 -2 30 c-1 26 -3 27 -10 10 -7 -17 -9 -18 -9
-2 -1 9 -6 26 -13 37 -7 10 -9 23 -5 27 5 4 12 1 17 -7 7 -10 8 -4 6 20 -2 19
-1 26 1 16 4 -16 7 -17 15 -5 7 10 8 8 3 -8 -3 -13 -2 -30 4 -40 8 -16 10 -15
16 9 14 54 10 188 -5 188 -5 0 -10 -12 -11 -27 -1 -26 -1 -27 -7 -5 -7 23 -7
23 -24 -6 -10 -16 -19 -50 -19 -75 -2 -28 -8 -48 -16 -51 -7 -3 -13 0 -13 7 1
16 26 118 35 140 7 16 89 76 105 77 3 0 5 -281 6 -625z m-187 538 c-1 -30 -37
-118 -38 -93 -1 8 7 34 16 58 14 37 14 45 2 53 -11 7 -11 9 4 9 12 0 17 -8 16
-27z m-42 -145 c-3 -7 -5 -2 -5 12 0 14 2 19 5 13 2 -7 2 -19 0 -25z m80 -40
c-3 -7 -5 -2 -5 12 0 14 2 19 5 13 2 -7 2 -19 0 -25z m813 -183 c19 -1 57 -3
84 -4 46 -1 48 -2 42 -25 -4 -17 -1 -28 10 -34 12 -7 14 -14 7 -26 -8 -15 -31
-18 -151 -23 l-142 -5 0 63 0 64 57 -4 c32 -1 74 -4 93 -6z m190 10 c0 -12
-33 -55 -41 -55 -17 0 -9 48 9 53 27 7 32 7 32 2z m-1390 -30 c0 -14 -2 -25
-4 -25 -2 0 -6 11 -8 25 -3 14 -1 25 3 25 5 0 9 -11 9 -25z m7 -147 c-3 -8 -6
-5 -6 6 -1 11 2 17 5 13 3 -3 4 -12 1 -19z m1103 -44 c0 -2 -16 -4 -35 -4 -19
0 -35 4 -35 8 0 4 16 6 35 4 19 -2 35 -6 35 -8z m-1080 -191 c-1 -5 -8 -19
-16 -33 -8 -14 -13 -17 -10 -7 3 10 6 25 6 33 0 8 5 14 10 14 6 0 10 -3 10 -7z
m73 -143 c-3 -11 -10 -23 -16 -27 -5 -3 -8 -2 -5 3 3 5 8 17 11 27 9 24 16 22
10 -3z m1201 -75 c-4 -8 -10 -15 -15 -15 -4 0 -6 7 -3 15 4 8 10 15 15 15 4 0
6 -7 3 -15z m1201 -175 c4 -6 -7 -10 -25 -10 -18 0 -29 4 -25 10 3 6 15 10 25
10 10 0 22 -4 25 -10z m1023 -317 c4 -10 7 -299 7 -643 l0 -625 -1322 -3
-1323 -2 0 645 0 645 1315 0 c1244 0 1316 -1 1323 -17z m4572 2 c0 -9 -11 -20
-24 -25 -37 -14 -39 -26 -21 -94 16 -60 16 -65 -1 -102 -10 -22 -27 -52 -38
-67 -20 -27 -20 -29 -3 -59 17 -29 17 -32 1 -49 -19 -21 -49 -25 -59 -9 -15
24 -25 4 -45 -85 -12 -52 -25 -95 -28 -95 -12 0 -242 77 -248 82 -10 10 19
103 39 125 17 19 19 31 13 85 -11 106 -26 165 -46 183 -24 22 -26 35 -5 35 9
0 24 20 35 45 l19 45 206 0 c177 0 205 -2 205 -15z m-3881 -6 c96 0 127 -3
106 -10 -16 -4 -91 -9 -167 -10 -133 -1 -137 -1 -153 -25 -8 -13 -11 -24 -5
-24 5 0 10 -7 10 -15 0 -8 5 -15 12 -15 6 0 4 -7 -5 -18 -9 -10 -20 -40 -23
-65 -4 -26 -10 -47 -14 -47 -3 0 -7 -25 -7 -56 0 -31 -6 -59 -12 -63 -6 -4 -9
-15 -5 -24 3 -10 1 -17 -5 -17 -8 0 -12 -40 -13 -132 -1 -223 1 -278 12 -298
6 -11 7 -20 3 -20 -13 0 -7 -119 12 -235 2 -11 4 -25 4 -31 1 -7 9 -14 19 -17
11 -2 22 -17 25 -36 4 -20 15 -35 29 -41 22 -8 22 -9 -4 -9 -16 -1 -28 -5 -28
-9 0 -14 328 -21 743 -18 207 1 377 -1 377 -5 0 -16 -89 -18 -642 -19 l-583
-1 0 637 0 637 89 -7 c49 -3 150 -6 225 -7z m898 -9 c-3 -11 -2 -22 2 -25 13
-8 11 -89 -3 -120 -11 -23 -14 -25 -14 -10 0 11 -5 37 -10 58 -10 39 -22 60
-22 39 0 -7 -4 -12 -9 -12 -5 0 -8 8 -7 17 1 12 -9 19 -29 24 l-30 6 35 5 c38
7 -79 2 -148 -5 -23 -2 -45 0 -48 4 -3 5 -17 9 -31 9 -15 0 -23 3 -19 8 7 6
121 14 290 20 44 2 48 0 43 -18z m4571 -262 l-3 -283 -145 -6 c-167 -7 -459
-39 -671 -75 -81 -13 -193 -29 -249 -35 -64 -6 -124 -19 -159 -33 -91 -38
-226 -86 -242 -86 -8 0 -32 16 -54 36 -22 19 -61 53 -87 74 l-47 38 48 12 c70
17 114 57 145 134 14 36 29 84 32 106 4 22 10 40 15 40 14 0 30 78 23 114 -3
19 -22 58 -42 88 -26 39 -36 67 -40 106 l-4 52 741 0 741 0 -2 -282z m-5100
267 c-10 -10 -107 -14 -113 -5 -4 6 18 10 56 10 34 0 60 -2 57 -5z m1390 -227
c7 -7 12 -22 12 -35 0 -18 -6 -23 -24 -23 -14 0 -28 5 -31 10 -3 6 -15 10 -26
10 -10 0 -19 -4 -19 -10 0 -5 -7 -10 -15 -10 -20 0 -19 36 1 44 9 3 26 6 39 6
13 0 27 5 30 10 8 13 18 13 33 -2z m-164 -6 c10 -16 -10 -67 -27 -70 -13 -3
-17 4 -17 31 0 18 3 37 7 40 9 10 31 9 37 -1z m-564 -13 c0 -17 -20 -49 -30
-49 -6 0 -10 14 -10 30 0 23 4 30 20 30 11 0 20 -5 20 -11z m42 -6 c7 -25 -1
-43 -18 -43 -9 0 -14 11 -14 30 0 33 24 42 32 13z m88 -13 c0 -20 -5 -30 -15
-30 -15 0 -21 40 -8 53 14 15 23 6 23 -23z m73 8 c7 -23 1 -38 -14 -38 -5 0
-9 10 -10 23 0 21 -1 21 -10 -3 -10 -23 -11 -24 -21 -7 -7 14 -6 22 9 32 26
20 40 18 46 -7z m67 1 c0 -5 -8 -10 -17 -10 -17 -1 -17 -2 0 -6 19 -5 22 -18
6 -28 -11 -7 -38 22 -39 42 0 6 8 13 18 16 20 4 32 -1 32 -14z m50 -20 c0 -16
-4 -29 -9 -29 -10 0 -22 51 -14 63 9 15 23 -5 23 -34z m80 27 c0 -7 -7 -27
-15 -42 l-15 -29 -1 35 c0 32 -1 33 -10 12 -10 -26 -29 -21 -29 7 0 24 9 31
42 31 17 0 28 -5 28 -14z m70 -21 c0 -19 -4 -35 -9 -35 -18 0 -41 12 -41 22 0
6 7 8 15 4 9 -3 15 0 15 9 0 9 -6 12 -15 9 -9 -4 -15 0 -15 10 0 10 9 16 25
16 22 0 25 -4 25 -35z m-390 6 c0 -11 -4 -23 -10 -26 -6 -4 -10 5 -10 19 0 14
5 26 10 26 6 0 10 -9 10 -19z m-903 -119 c11 -7 17 -26 41 -126 7 -26 9 -27
21 -13 7 9 16 40 20 69 l6 53 72 0 c46 0 77 -5 85 -13 19 -19 19 -395 0 -414
-18 -18 -45 1 -54 38 -4 16 -12 48 -18 72 -6 23 -15 42 -19 42 -9 0 -33 -70
-46 -132 -4 -21 -11 -28 -30 -28 -28 0 -50 29 -60 80 -18 97 -35 95 -35 -4 0
-81 -4 -86 -64 -86 l-33 0 -6 83 c-9 108 -9 372 0 380 9 9 105 8 120 -1z m398
-227 l0 -210 -52 -3 -53 -3 0 178 c0 98 5 195 11 216 10 37 11 38 52 35 l42
-3 0 -210z m185 168 l0 -47 36 42 c27 32 43 42 65 42 26 0 29 -3 29 -32 0 -18
7 -73 16 -123 17 -96 14 -249 -6 -269 -20 -20 -39 17 -45 89 -7 73 -22 125
-36 125 -4 0 -10 -39 -11 -87 -3 -95 -18 -117 -42 -61 -43 101 -41 101 -44 15
l-3 -78 -42 3 -42 3 -3 193 c-1 121 1 200 8 212 9 16 21 20 65 20 l55 0 0 -47z
m294 -165 c-3 -112 -7 -209 -9 -215 -5 -17 -77 -17 -93 -1 -15 15 -15 88 2
262 14 149 17 156 74 156 l33 0 -7 -202z m137 192 c5 0 9 -57 9 -127 0 -71 3
-145 6 -165 6 -35 9 -37 48 -40 39 -3 41 -5 44 -39 l3 -36 -48 -6 c-26 -3 -68
-2 -93 1 l-45 7 -3 202 -2 202 22 4 c13 2 29 3 36 1 8 -2 18 -4 23 -4z m313
-21 c8 -42 0 -51 -38 -44 -41 8 -58 -11 -50 -53 5 -24 12 -32 33 -34 20 -2 27
-9 29 -30 3 -21 -3 -29 -25 -40 -24 -11 -28 -19 -28 -53 l0 -40 45 0 c44 0 45
0 45 -34 0 -51 -16 -61 -100 -61 -57 0 -74 3 -79 16 -10 26 -7 351 4 378 9 25
13 26 84 26 l74 0 6 -31z m204 -11 c4 -42 22 -53 22 -14 0 14 7 32 16 40 19
20 60 21 67 2 12 -31 -15 -343 -34 -393 -12 -32 -47 -30 -59 3 -6 14 -10 60
-10 102 0 120 -13 118 -46 -7 -27 -106 -30 -111 -55 -111 -15 0 -29 7 -33 16
-3 9 -6 73 -7 142 0 70 -4 154 -8 187 -5 33 -6 64 -4 68 3 4 37 7 76 5 l72 -3
3 -37z m1990 -60 c-8 -86 -11 -94 -27 -83 -15 9 -14 50 4 92 8 19 15 44 15 54
0 11 4 19 8 19 4 0 4 -37 0 -82z m1684 -135 l57 -18 0 -303 1 -304 -305 3
c-218 2 -305 6 -305 14 0 21 65 110 112 154 26 24 58 62 71 85 27 45 62 185
50 197 -8 8 -73 -5 -125 -23 -30 -11 -30 -12 -52 -118 -26 -122 -74 -273 -92
-290 -5 -4 -127 -10 -272 -14 l-263 -6 8 48 c15 86 9 143 -21 197 -42 75 -118
174 -141 181 -17 6 -15 9 14 16 21 6 37 6 43 0 5 -5 24 -6 42 -2 22 5 41 3 57
-6 28 -16 106 -17 169 -3 25 5 82 15 128 21 45 7 82 16 82 20 0 5 12 25 28 44
43 55 97 46 188 -32 48 -41 58 -46 87 -40 36 7 201 87 227 111 22 20 132 85
144 85 6 0 37 -8 68 -17z m-4537 -385 c6 -4 2 -8 -7 -8 -10 0 -18 7 -18 17 0
9 3 12 8 7 4 -5 12 -12 17 -16z m39 -150 c6 -34 5 -38 -14 -38 -11 0 -23 7
-26 15 -4 8 -12 15 -20 15 -8 0 -14 5 -14 10 0 6 8 10 17 8 13 -2 17 5 18 32
1 19 3 40 4 45 4 15 27 -44 35 -87z m-49 63 c3 -5 1 -12 -5 -16 -5 -3 -10 1
-10 9 0 18 6 21 15 7z m-3124 -528 c-35 -84 -72 -148 -140 -238 -48 -63 -111
-175 -111 -197 0 -17 18 -7 23 12 3 11 10 20 15 20 17 0 23 -149 20 -450 l-3
-285 -437 0 -438 0 0 602 0 603 549 0 550 0 -28 -67z m1572 -530 l-1 -598
-451 -3 -451 -2 0 248 c0 137 -3 290 -6 340 -6 80 -5 92 9 92 26 0 31 21 8 36
-16 12 -21 26 -21 59 0 41 -3 45 -27 51 -16 3 -33 7 -39 9 -13 4 -24 61 -24
128 l0 47 54 0 c63 0 88 19 29 22 -21 1 -49 3 -63 4 -14 1 -30 3 -37 3 -6 1
-18 29 -26 64 -8 34 -18 70 -22 80 -7 16 22 17 531 17 l539 0 -2 -597z m5514
591 c-3 -3 -12 -4 -19 -1 -8 3 -5 6 6 6 11 1 17 -2 13 -5z m642 -589 l1 -595
-242 1 c-286 1 -366 14 -131 20 107 3 167 9 175 17 8 8 15 8 24 1 7 -6 34 -9
61 -7 46 3 48 4 46 31 -1 15 3 27 10 27 8 0 7 4 -2 9 -20 13 -2 77 21 75 13
-1 14 5 7 35 -4 19 -13 37 -18 39 -6 2 -11 8 -11 14 0 6 7 8 15 4 20 -7 19 4
-1 19 -14 10 -16 42 -16 256 0 134 1 253 2 264 1 20 -5 135 -14 269 -3 45 -11
75 -21 85 -13 14 -57 17 -278 22 l-262 5 317 2 316 2 1 -595z m-1586 262 c18
-8 58 -42 90 -77 l59 -63 -7 -79 c-7 -81 1 -108 31 -108 19 0 51 53 69 116 20
70 63 164 74 164 17 0 22 -19 10 -41 -6 -12 -13 -52 -15 -88 -3 -72 -37 -196
-61 -223 -36 -41 -117 -23 -182 41 l-33 32 7 98 c8 107 -4 149 -45 171 -27 14
-48 7 -89 -30 -26 -24 -36 -28 -47 -19 -22 18 -17 36 22 79 39 44 63 49 117
27z m-3322 -232 c2 -115 0 -130 -14 -133 -15 -3 -17 11 -17 131 0 73 3 137 7
141 16 16 22 -17 24 -139z m155 -4 c6 -112 5 -133 -7 -129 -10 3 -16 37 -22
127 -5 67 -6 129 -3 138 14 37 25 -9 32 -136z m-82 117 c10 -37 7 -236 -4
-243 -5 -3 -16 10 -24 30 -8 19 -20 35 -25 35 -18 0 -14 152 5 178 20 28 40
28 48 0z m410 -80 c4 -51 9 -110 13 -130 10 -70 -12 -39 -30 40 -17 77 -23
173 -11 185 15 15 21 -7 28 -95z m-234 -38 c0 -111 -2 -130 -15 -130 -13 0
-16 14 -15 78 2 107 11 182 21 182 5 0 9 -58 9 -130z m70 0 c0 -109 -2 -130
-15 -130 -13 0 -15 20 -15 123 0 68 3 127 7 130 19 19 23 -4 23 -123z m90 31
c0 -54 3 -113 6 -130 5 -24 3 -31 -10 -31 -14 0 -16 17 -16 130 0 80 4 130 10
130 6 0 10 -40 10 -99z m174 72 c-5 -16 -9 -71 -9 -123 0 -93 1 -95 24 -98 13
-2 28 2 32 10 5 7 9 65 10 128 l2 115 7 -125 c5 -69 6 -128 3 -132 -2 -5 -26
-8 -52 -8 l-49 0 -7 46 c-6 43 2 190 12 207 2 4 11 7 20 7 12 0 13 -6 7 -27z
m220 -95 c-6 -126 -9 -138 -25 -138 -8 0 -9 31 -4 118 7 121 10 132 26 132 6
0 7 -43 3 -112z m-988 66 c-5 -17 -2 -24 8 -24 8 0 18 5 21 10 21 34 39 -61
29 -157 -5 -43 -11 -63 -20 -63 -11 0 -14 19 -14 79 0 44 5 83 10 86 16 10 12
22 -11 28 -27 7 -39 -25 -39 -106 0 -44 -3 -58 -10 -47 -10 16 -14 188 -4 214
10 25 36 7 30 -20z m1124 -38 c0 -43 -2 -47 -15 -36 -9 7 -14 19 -11 26 3 8 0
11 -9 7 -16 -5 -30 18 -23 38 3 8 9 6 21 -5 16 -16 17 -16 17 16 0 25 3 29 10
18 5 -8 10 -37 10 -64z m-70 29 c0 -24 -5 -35 -15 -35 -15 0 -22 50 -8 63 15
15 23 5 23 -28z m2467 -41 c3 -8 -8 -57 -25 -107 -17 -51 -36 -110 -42 -133
-5 -22 -19 -49 -30 -59 -17 -15 -22 -16 -36 -4 -43 36 -57 134 -28 195 20 42
109 124 135 124 11 0 22 -7 26 -16z m-2037 -34 c0 -6 -47 -10 -120 -10 l-120
0 0 -26 c0 -21 4 -25 17 -20 9 4 37 10 61 13 34 5 44 3 40 -7 -2 -7 -26 -14
-58 -17 -61 -5 -81 -13 -32 -13 18 0 32 -4 32 -10 0 -5 -5 -10 -11 -10 -5 0
-8 -4 -4 -9 3 -5 -5 -11 -17 -13 -12 -2 -23 -8 -25 -15 -3 -9 25 -13 109 -16
l113 -3 -122 -2 -123 -2 0 85 0 85 130 0 c80 0 130 -4 130 -10z m-1758 -29 c4
-11 128 -20 128 -9 0 5 5 6 10 3 6 -3 10 -17 10 -30 0 -19 -7 -24 -37 -30 -21
-3 -66 -5 -101 -3 -52 2 -61 5 -56 18 4 8 9 25 11 38 5 21 28 31 35 13z m96 2
c-10 -2 -26 -2 -35 0 -10 3 -2 5 17 5 19 0 27 -2 18 -5z m1222 -8 c0 -8 4 -15
8 -15 5 0 7 -13 4 -30 -7 -46 38 -36 67 15 10 17 11 14 9 -20 -3 -37 -6 -40
-33 -42 -16 -2 -37 3 -46 10 -18 14 -35 97 -19 97 5 0 10 -7 10 -15z m430 -20
c0 -11 -12 -15 -45 -15 -33 0 -45 4 -45 15 0 11 12 15 45 15 33 0 45 -4 45
-15z m-120 -46 c0 -5 8 -9 18 -8 41 4 113 -2 109 -8 -3 -5 -37 -7 -76 -5 -53
3 -71 7 -71 18 0 8 5 14 10 14 6 0 10 -5 10 -11z m-1595 -19 c5 -8 11 -8 20 0
14 12 93 11 101 -1 7 -12 -55 -20 -130 -17 -44 2 -71 8 -74 16 -5 15 74 17 83
2z m108 -37 c-40 -2 -106 -2 -145 0 -40 1 -8 3 72 3 80 0 112 -2 73 -3z m1044
-65 c-3 -8 -6 -5 -6 6 -1 11 2 17 5 13 3 -3 4 -12 1 -19z m-594 -18 c-3 -12
-8 -19 -11 -16 -5 6 5 36 12 36 2 0 2 -9 -1 -20z m74 -12 c-3 -8 -6 -5 -6 6
-1 11 2 17 5 13 3 -3 4 -12 1 -19z m4660 -160 c-3 -7 -5 -2 -5 12 0 14 2 19 5
13 2 -7 2 -19 0 -25z m-1037 2 c0 -5 -2 -10 -4 -10 -3 0 -8 5 -11 10 -3 6 -1
10 4 10 6 0 11 -4 11 -10z m-50 -54 c0 -3 -4 -8 -10 -11 -5 -3 -10 -1 -10 4 0
6 5 11 10 11 6 0 10 -2 10 -4z m46 -15 c-3 -5 6 -21 20 -36 20 -22 23 -30 12
-36 -9 -6 -7 -9 10 -9 13 0 22 -6 22 -15 0 -12 23 -15 128 -18 88 -2 62 -3
-85 -5 -117 -1 -213 2 -213 6 0 5 9 17 20 27 14 13 17 21 9 26 -29 17 11 47
54 40 4 0 7 6 7 14 0 8 5 15 11 15 5 0 8 -4 5 -9z m531 -117 c-7 -7 -117 -7
-125 1 -3 3 25 5 63 5 38 0 66 -3 62 -6z m-6407 -323 c0 -4 -24 -32 -52 -62
-29 -30 -91 -97 -138 -148 -47 -52 -94 -103 -104 -113 -19 -18 -23 -19 -48
-22 -7 0 -14 -9 -16 -18 -3 -14 4 -18 32 -18 19 0 38 -5 42 -11 4 -7 0 -9 -13
-5 -15 5 -35 -5 -69 -32 -91 -72 -132 -120 -139 -162 -7 -42 -25 -55 -25 -19
0 11 -5 17 -10 14 -6 -4 -7 -23 -4 -46 7 -42 -9 -56 -21 -18 -10 30 3 89 20
89 17 0 38 36 30 50 -3 6 -14 10 -23 10 -13 1 -9 7 13 26 20 16 38 23 52 19
16 -4 27 3 43 26 12 16 20 32 18 35 -10 10 -102 -33 -139 -64 -41 -36 -59 -79
-59 -149 0 -97 -38 -193 -75 -193 -7 0 -20 9 -30 20 -41 46 -98 8 -147 -97
-33 -74 -34 -77 -9 -70 10 2 24 1 31 -3 15 -9 15 -10 -119 -163 l-93 -107
-394 0 -394 0 0 615 0 615 763 2 c419 2 833 4 920 5 86 0 157 -2 157 -6z m688
0 l112 -1 0 -615 0 -615 -811 0 c-771 0 -811 1 -798 18 41 55 100 107 144 126
28 13 74 46 104 74 43 41 58 49 72 42 48 -26 133 3 202 69 66 62 75 96 67 238
-5 74 48 170 161 293 48 52 137 156 198 232 61 75 116 139 123 141 7 3 81 4
163 2 83 -2 201 -4 263 -4z m3125 -27 c10 -35 -1 -1186 -12 -1197 -4 -4 -599
-6 -1322 -5 l-1314 3 -3 612 -2 613 1282 2 c706 2 1301 3 1323 2 34 -1 40 -4
48 -30z m3152 -580 l0 -609 -535 0 -535 0 -11 56 c-6 30 -18 66 -26 80 -21 35
-45 119 -64 233 -10 55 -25 107 -35 119 -17 22 -17 22 -39 2 -20 -18 -22 -27
-18 -120 l3 -100 -35 -2 c-30 -2 -39 3 -64 35 -17 20 -44 46 -60 58 -33 22
-35 31 -14 82 12 30 11 35 -5 46 -19 15 -23 56 -6 73 13 13 -2 46 -37 78 -21
20 -23 26 -13 51 6 16 9 56 7 89 l-3 60 50 26 c49 25 50 27 47 67 -3 48 -50
178 -81 220 -47 66 -98 62 717 64 405 2 742 3 747 2 7 0 10 -211 10 -610z
m-9166 380 c-1 -118 -5 -217 -10 -220 -5 -3 -10 37 -11 88 -1 79 -2 85 -8 43
-6 -49 -7 -50 -15 -17 -4 17 -12 32 -17 32 -5 0 -6 -5 -2 -12 4 -7 3 -8 -5 -4
-6 4 -9 12 -5 17 3 5 1 16 -6 24 -6 7 -14 40 -18 72 -5 50 -7 54 -13 28 l-7
-30 -1 28 c0 15 -4 27 -8 28 -5 0 -17 3 -28 6 -11 3 -60 7 -109 8 -110 4 -234
15 -259 24 -17 6 -17 8 -3 20 14 11 16 11 16 -3 0 -9 7 -16 15 -16 9 0 12 6 9
15 -4 8 -1 15 5 15 6 0 11 -7 11 -16 0 -13 9 -15 45 -12 25 2 45 0 45 -4 0
-20 20 -5 21 15 0 21 1 21 9 2 8 -19 9 -19 9 3 1 25 17 30 24 7 4 -11 4 -10 3
2 -1 14 -10 18 -39 17 -46 0 -50 23 -4 29 17 2 -11 4 -63 4 -52 -1 -74 -2 -47
-4 29 -3 47 -9 47 -17 0 -9 -18 -11 -65 -8 l-65 4 -1 -28 -1 -29 -7 30 c-5 24
-11 30 -31 28 -197 -14 -201 -15 -198 -31 2 -10 14 -18 28 -19 22 -1 23 -1 2
4 -12 2 -20 9 -17 14 9 13 79 11 93 -3 8 -8 15 -8 24 0 16 13 66 11 72 -4 3
-7 -27 -15 -82 -23 -95 -13 -121 -17 -168 -26 -26 -4 -33 -2 -37 14 -7 27 1
32 40 25 27 -5 33 -3 33 10 0 11 -4 14 -12 9 -7 -4 -25 -6 -40 -4 -17 1 -28
-2 -28 -9 0 -7 -7 -9 -16 -6 -8 3 -12 2 -9 -3 3 -6 -9 -11 -27 -13 -33 -3 -54
-30 -73 -93 -6 -20 -7 -20 -21 -1 -14 20 -14 20 -15 0 0 -12 -5 -7 -14 16 -13
34 -14 32 -14 -53 -1 -51 -5 -86 -10 -83 -5 4 -11 0 -14 -6 -2 -7 -5 14 -5 47
0 33 6 64 12 68 8 6 8 10 -1 14 -7 2 -13 18 -13 33 0 16 -4 31 -9 34 -9 6 0
74 13 94 4 7 19 13 34 13 23 1 24 2 7 8 -35 11 146 16 608 18 l448 1 -2 -214z
m-2907 -34 c-2 -58 -12 -173 -23 -256 -10 -84 -22 -215 -25 -293 l-7 -141 26
0 c26 0 27 -1 27 -64 0 -36 -4 -76 -10 -90 -9 -24 -14 -26 -67 -26 -32 0 -76
3 -97 7 l-39 6 7 226 c3 124 7 339 7 476 1 138 3 254 6 258 3 4 48 6 101 5
l97 -3 -3 -105z m2878 -172 c0 -53 -11 -60 -16 -11 -3 28 3 63 12 63 2 0 4
-23 4 -52z m-1061 -30 c-1 -7 -5 -24 -9 -38 -7 -22 -8 -21 -9 13 -1 20 4 37 9
37 6 0 10 -6 9 -12z m3071 -42 c0 -53 -20 -95 -51 -112 -16 -8 -29 -18 -29
-23 0 -5 -14 -24 -31 -42 -17 -19 -39 -47 -49 -62 l-18 -28 -4 30 c-3 21 0 31
8 31 7 0 22 16 34 35 12 20 27 41 34 48 6 6 18 26 25 44 7 17 23 41 37 54 13
12 24 33 24 46 0 14 4 21 10 18 6 -3 10 -21 10 -39z m-125 -35 c-3 -6 -11 -11
-17 -11 -6 0 -6 6 2 15 14 17 26 13 15 -4z m-2835 -51 c0 -5 -5 -10 -11 -10
-5 0 -7 5 -4 10 3 6 8 10 11 10 2 0 4 -4 4 -10z m986 -316 c-3 -163 -7 -298
-10 -301 -2 -3 -252 -1 -555 3 l-551 7 0 109 c0 65 4 108 10 108 6 0 10 7 10
15 0 11 12 15 45 15 25 0 45 -4 45 -10 0 -5 -7 -10 -15 -10 -22 0 -18 -37 4
-43 14 -3 17 -11 13 -32 -4 -24 -3 -26 13 -18 13 8 23 6 37 -6 10 -9 20 -14
22 -11 2 3 10 -1 19 -9 14 -11 20 -11 32 -1 13 10 19 10 33 -4 20 -18 34 -12
25 10 -3 8 0 14 6 14 6 0 11 -8 11 -17 0 -15 2 -16 10 -3 6 9 10 10 10 3 0 -6
-5 -15 -11 -18 -5 -4 -8 -12 -6 -18 5 -15 49 -16 59 -2 4 6 8 2 8 -7 0 -17 10
-22 38 -19 6 1 12 -2 12 -8 0 -5 -6 -12 -12 -14 -8 -3 -6 -6 5 -6 9 -1 17 6
17 14 0 8 5 15 11 15 6 0 9 7 5 15 -7 20 8 19 25 -1 12 -14 14 -14 21 5 9 26
48 28 49 4 0 -11 3 -13 6 -6 3 10 10 10 24 2 18 -9 19 -7 15 38 -6 68 18 115
103 198 65 64 73 69 92 57 12 -8 23 -11 26 -9 3 3 -5 10 -16 17 -12 6 -21 17
-21 24 0 16 157 135 180 137 8 0 42 13 75 29 33 16 66 29 73 29 11 1 13 -52 8
-295z m1730 228 c-9 -9 -37 8 -31 18 5 8 11 7 21 -1 8 -6 12 -14 10 -17z
m-2839 -79 c-2 -21 -4 -6 -4 32 0 39 2 55 4 38 2 -18 2 -50 0 -70z m3057 81
c3 -9 6 -39 6 -68 0 -69 -38 -129 -113 -179 -59 -39 -83 -45 -111 -24 -17 13
-14 47 5 47 5 0 14 11 19 25 5 14 16 25 25 25 8 0 15 8 16 18 0 10 3 12 6 5 2
-7 8 -13 12 -13 10 0 63 85 86 138 19 43 38 54 49 26z m-2959 -29 c0 -10 -6
-20 -12 -22 -8 -3 -13 5 -13 22 0 17 5 25 13 23 6 -3 12 -13 12 -23z m125 -15
c0 -5 -5 -10 -11 -10 -5 0 -7 5 -4 10 3 6 8 10 11 10 2 0 4 -4 4 -10z m60 -85
c0 -8 -4 -15 -9 -15 -13 0 -22 16 -14 24 11 11 23 6 23 -9z m-170 -3 c0 -4 -9
-8 -20 -9 -11 -1 -18 2 -15 8 7 11 35 12 35 1z m2450 -7 c0 -8 -12 -41 -27
-72 -15 -32 -28 -59 -28 -60 -1 -1 -11 0 -23 4 -39 10 -26 87 22 125 26 22 56
23 56 3z m-2310 -9 c0 -11 -19 -15 -25 -6 -3 5 1 10 9 10 9 0 16 -2 16 -4z
m-160 -58 c0 -5 -4 -8 -10 -8 -5 0 -10 10 -10 23 0 18 2 19 10 7 5 -8 10 -18
10 -22z m2640 -70 c-19 -44 -70 -98 -91 -98 -6 0 -23 7 -39 15 -32 17 -41 39
-12 31 9 -2 27 -7 40 -11 32 -9 50 9 85 85 22 47 32 59 34 45 2 -11 -5 -41
-17 -67z m-120 37 c16 -19 4 -35 -26 -35 -26 0 -32 18 -12 38 16 16 23 15 38
-3z m-2343 -137 c-3 -8 -6 -5 -6 6 -1 11 2 17 5 13 3 -3 4 -12 1 -19z m8723
-57 c17 -90 15 -98 -27 -104 -20 -4 -39 -4 -43 -2 -8 5 7 127 21 162 9 23 12
25 24 12 8 -8 19 -39 25 -68z m-460 -417 c6 -16 20 -23 56 -28 120 -16 194 -3
194 36 0 7 42 8 128 3 132 -7 388 -8 747 -3 152 2 216 0 230 -9 16 -10 -9 -13
-140 -14 -88 -1 -170 0 -182 0 -11 1 -24 -3 -28 -9 -5 -8 -11 -8 -21 1 -11 9
-40 9 -127 1 -62 -6 -163 -9 -225 -7 -98 5 -113 3 -119 -11 -6 -15 -7 -15 -20
2 -12 17 -13 17 -13 -2 0 -10 -7 -32 -15 -48 -8 -15 -15 -34 -15 -40 0 -6 30
-24 68 -40 169 -70 206 -92 282 -172 41 -43 89 -91 106 -108 52 -52 132 -160
152 -207 11 -24 25 -67 31 -96 14 -55 26 -65 86 -67 20 -1 31 -7 33 -19 8 -39
-12 -73 -82 -142 -83 -83 -142 -177 -180 -288 -24 -69 -28 -125 -8 -113 4 2
149 5 322 7 372 4 399 5 398 28 0 9 4 40 8 69 7 50 17 65 27 40 3 -7 5 14 5
47 0 44 -2 52 -7 30 l-7 -30 -10 40 c-5 22 -9 87 -9 145 1 58 2 181 3 274 1
93 5 167 8 163 3 -3 9 -48 14 -99 6 -74 7 -42 9 156 1 217 -1 247 -14 242 -17
-6 -17 -7 -20 130 -1 49 -4 95 -8 101 -4 5 -38 11 -76 12 -38 1 -89 8 -112 15
-51 16 -53 16 131 18 l125 2 -2 -702 -1 -702 -1377 0 c-758 0 -1381 2 -1385 5
-5 3 -5 1382 0 1412 0 1 232 1 516 0 515 -2 517 -2 524 -23z m1420 -4 c0 -5
-10 -10 -22 -9 -22 0 -22 1 -3 9 11 5 21 9 23 9 1 1 2 -3 2 -9z m-9936 -6 c9
-3 16 -15 16 -26 0 -10 6 -18 13 -17 25 3 37 -1 37 -14 0 -7 9 -20 19 -29 29
-25 38 -84 16 -108 -10 -11 -15 -23 -11 -27 4 -4 11 -1 16 7 8 12 10 12 10 2
0 -8 -9 -26 -19 -41 -11 -15 -23 -40 -26 -57 -16 -65 -48 -170 -58 -181 -17
-23 -26 -14 -17 18 5 16 7 36 4 44 -3 8 -1 22 6 32 10 16 11 14 7 -10 -3 -21
-2 -26 7 -17 6 6 11 30 12 53 1 25 6 41 13 39 13 -2 15 14 2 22 -12 8 -33 -19
-29 -38 2 -8 -1 -14 -7 -13 -5 1 -8 9 -7 17 2 8 3 30 3 48 -1 26 3 32 22 33
16 1 17 3 5 6 -14 3 -15 9 -7 30 5 14 7 28 4 31 -3 3 -5 0 -5 -6 0 -7 -5 -12
-11 -12 -6 0 -9 6 -6 13 2 6 -3 29 -11 50 -13 33 -13 40 -1 48 10 6 11 9 1 9
-7 0 -15 -7 -19 -16 -5 -14 -7 -14 -17 2 -6 11 -11 24 -11 29 0 6 -20 15 -44
21 -25 6 -47 16 -49 22 -2 7 -8 12 -13 12 -4 0 -6 -7 -3 -15 4 -10 0 -15 -14
-15 -15 0 -19 -5 -15 -20 5 -18 -9 -26 -39 -21 -4 0 -5 -6 -2 -14 7 -18 -7
-20 -24 -3 -9 9 -12 9 -12 0 0 -21 -20 -13 -30 13 -5 14 -13 25 -16 25 -4 0
-4 -3 -1 -7 4 -3 1 -13 -5 -21 -10 -11 -8 -17 7 -29 11 -7 20 -17 21 -21 0 -4
4 -15 9 -25 5 -13 0 -26 -21 -47 -34 -35 -38 -35 -63 -12 -42 39 -77 68 -101
84 -14 8 -37 27 -52 41 -15 14 -37 28 -48 32 -17 5 -26 28 -21 58 0 4 -6 7
-15 7 -8 0 -12 5 -9 10 7 11 581 15 609 4z m-270 -253 c17 -18 17 -22 2 -42
-13 -20 -16 -20 -22 -6 -3 10 0 25 7 35 13 16 12 16 -7 -1 -20 -16 -34 -14
-34 5 0 5 5 6 10 3 6 -3 10 1 10 9 0 21 13 20 34 -3z m43 -60 c0 -11 -6 -17
-14 -14 -7 3 -13 -1 -13 -8 0 -9 -3 -10 -10 -3 -15 15 -1 44 20 44 12 0 18 -7
17 -19z m10420 -73 c-3 -8 -6 -5 -6 6 -1 11 2 17 5 13 3 -3 4 -12 1 -19z m12
-55 c-1 -16 -5 -39 -9 -53 -6 -20 -8 -14 -9 28 -1 28 3 52 9 52 6 0 10 -12 9
-27z m-7529 -118 c0 -24 -5 -35 -15 -35 -16 0 -18 12 -9 48 10 34 24 26 24
-13z m176 -33 c-4 -3 -12 0 -18 6 -9 9 -8 18 3 39 l14 27 3 -33 c2 -18 1 -36
-2 -39z m129 32 c0 -15 -6 -29 -14 -32 -10 -3 -12 2 -7 22 4 16 2 26 -5 26 -6
0 -13 -9 -16 -19 -3 -11 -11 -17 -18 -15 -7 3 -15 -2 -19 -11 -3 -9 -10 -13
-16 -10 -13 8 -13 52 0 60 6 3 10 -1 10 -9 0 -20 16 -21 27 -2 8 13 41 26 53
20 3 -2 6 -15 5 -30z m-490 10 c11 -15 14 -15 40 2 21 14 27 15 20 4 -5 -8 -8
-23 -6 -33 2 -16 -2 -18 -31 -12 -44 10 -48 13 -48 36 0 23 9 24 25 3z m268
-4 c-3 -11 0 -20 6 -20 6 0 11 -7 11 -15 0 -12 -4 -13 -25 -3 -29 13 -31 21
-9 42 20 21 23 20 17 -4z m-143 0 c0 -5 -4 -10 -10 -10 -5 0 -10 5 -10 10 0 6
5 10 10 10 6 0 10 -4 10 -10z m195 -11 c9 -27 4 -30 -19 -14 -10 8 -15 18 -11
24 10 17 23 13 30 -10z m-220 -9 c3 -5 -1 -10 -9 -10 -9 0 -16 5 -16 10 0 6 4
10 9 10 6 0 13 -4 16 -10z m435 -102 c26 -28 28 -91 3 -86 -11 2 -18 13 -19
28 -1 41 -4 50 -14 50 -5 0 -10 -10 -10 -23 0 -13 -11 -34 -24 -46 -20 -19
-31 -22 -60 -17 -33 6 -36 10 -36 40 0 45 23 75 47 60 10 -6 21 -24 24 -40 4
-22 8 -25 13 -13 4 9 6 20 5 25 -4 23 2 36 16 31 8 -4 17 -2 20 3 9 14 12 13
35 -12z m-1012 -46 c3 -46 1 -52 -17 -52 -26 0 -36 17 -20 36 9 11 9 21 1 38
-12 27 -6 38 18 34 11 -2 16 -18 18 -56z m170 39 c5 -16 22 -13 22 4 0 8 7 15
15 15 11 0 14 -12 14 -50 -1 -35 -6 -50 -15 -50 -8 0 -14 9 -14 20 0 26 -20
26 -27 -1 -4 -15 -12 -19 -32 -17 -22 3 -26 8 -29 41 -4 50 -20 47 -24 -5 -3
-42 -13 -54 -35 -40 -14 9 -23 72 -10 69 5 -1 13 5 18 14 7 13 21 16 61 14 29
-1 54 -8 56 -14z m96 4 c3 -8 12 -12 21 -9 21 8 20 -34 -2 -58 -29 -33 -43
-22 -43 32 0 48 12 66 24 35z m246 -40 c0 -42 -4 -55 -15 -55 -17 0 -34 30
-27 49 2 7 -2 17 -9 22 -10 6 -11 9 -1 9 6 0 12 7 12 15 0 8 9 15 20 15 18 0
20 -7 20 -55z m168 23 l9 -33 17 33 c15 28 22 33 49 30 27 -2 33 -8 35 -31 2
-17 -4 -37 -14 -48 -21 -23 -34 -24 -34 -4 0 8 5 15 10 15 6 0 10 12 10 26 0
37 -23 25 -35 -20 -8 -28 -13 -34 -23 -24 -9 9 -16 8 -30 -5 -38 -34 -87 -7
-76 41 9 38 23 52 50 52 18 0 25 -7 32 -32z m162 -13 c0 -33 -4 -45 -15 -45
-11 0 -15 12 -15 45 0 33 4 45 15 45 11 0 15 -12 15 -45z m-490 -10 c0 -33 -4
-45 -14 -45 -22 0 -26 12 -19 53 8 55 33 49 33 -8z m50 34 c0 22 30 11 36 -13
10 -43 1 -61 -34 -64 -24 -2 -32 1 -32 12 0 10 9 16 21 16 12 0 19 5 16 13 -2
6 -14 11 -25 9 -14 -2 -22 2 -22 11 0 21 12 28 27 16 9 -9 13 -8 13 0z m710 0
c0 -6 8 -8 19 -4 13 4 23 0 30 -12 9 -16 10 -16 11 5 0 45 25 16 28 -33 l3
-49 -21 19 c-16 14 -23 16 -32 7 -21 -21 -30 -13 -23 19 5 24 4 30 -6 27 -7
-2 -16 -15 -19 -29 -8 -35 -40 -38 -40 -4 0 14 5 35 10 46 11 20 40 26 40 8z
m168 -33 c4 -48 -8 -62 -39 -46 -21 12 -21 14 -6 25 21 15 22 29 2 22 -8 -4
-17 -2 -21 4 -9 16 17 40 40 37 17 -2 22 -11 24 -42z m106 -13 c5 -32 3 -43
-7 -43 -20 0 -90 68 -82 80 11 18 32 11 40 -12 6 -23 7 -22 21 21 7 23 21 0
28 -46z m152 17 c4 -10 11 -7 27 14 19 24 25 26 49 17 24 -9 26 -13 18 -40
-15 -55 -35 -66 -60 -36 -9 11 -16 13 -24 5 -18 -18 -36 -11 -49 23 l-14 32
-7 -32 c-6 -26 -13 -33 -31 -33 -24 0 -55 37 -48 58 7 20 33 14 33 -9 0 -12 4
-17 11 -13 6 3 9 15 6 25 -4 15 2 18 37 21 22 2 42 -1 44 -7 2 -5 6 -17 8 -25z
m-634 -148 c-6 -5 -19 -17 -27 -28 -14 -18 -14 -17 -4 9 7 15 19 27 28 27 12
0 13 -2 3 -8z m50 -42 c3 -22 -1 -25 -34 -28 -24 -2 -38 1 -38 9 0 7 10 9 24
7 25 -5 44 16 26 27 -6 4 -10 14 -10 23 0 26 29 -7 32 -38z m591 11 c-9 -12
-21 -21 -25 -21 -11 0 4 34 21 47 23 17 25 -2 4 -26z m-813 -6 c0 -13 -4 -27
-10 -30 -6 -4 -10 8 -10 30 0 22 4 34 10 30 6 -3 10 -17 10 -30z m660 -8 c0
-26 -15 -12 -25 23 -7 22 -6 23 9 11 9 -7 16 -23 16 -34z m-1390 21 c-1 -17
-28 -53 -35 -46 -8 8 13 58 25 58 5 0 10 -6 10 -12z m260 -45 c0 -4 -41 6 -48
12 -2 2 2 13 8 25 l12 22 14 -27 c8 -15 14 -29 14 -32z m29 30 c0 -25 -1 -26
-9 -8 -12 27 -12 35 0 35 6 0 10 -12 9 -27z m1051 1 c0 -14 -4 -23 -10 -19 -5
3 -10 15 -10 26 0 10 5 19 10 19 6 0 10 -12 10 -26z m-1290 1 c10 -12 10 -19
2 -27 -9 -9 -12 -7 -12 9 0 12 -6 24 -12 26 -8 4 -9 6 -2 6 6 1 17 -6 24 -14z
m416 -17 c14 2 24 0 24 -7 0 -8 -11 -11 -27 -9 -20 2 -28 9 -29 23 -1 12 1 14
3 4 3 -11 12 -15 29 -11z m44 28 c0 -3 -4 -8 -10 -11 -5 -3 -10 -1 -10 4 0 6
5 11 10 11 6 0 10 -2 10 -4z m120 -16 c-9 -17 -30 -28 -30 -16 0 16 15 36 26
36 12 0 12 -4 4 -20z m45 -1 c-5 -14 -3 -19 3 -15 6 3 13 2 17 -4 4 -6 -5 -10
-19 -10 -19 0 -26 5 -26 18 0 20 8 32 22 32 5 0 6 -10 3 -21z m434 -5 c7 4 11
-1 11 -12 0 -15 -5 -19 -20 -15 -12 3 -20 14 -20 27 0 16 2 18 9 7 5 -7 14
-10 20 -7z m491 -6 c0 -13 -32 -6 -37 9 -3 7 3 9 16 6 12 -3 21 -10 21 -15z
m41 -11 c-13 -13 -26 -3 -16 12 3 6 11 8 17 5 6 -4 6 -10 -1 -17z m-4183 -32
c15 -8 75 -36 133 -63 59 -27 138 -69 175 -94 38 -24 112 -68 164 -98 114 -64
150 -88 150 -101 0 -5 -133 -9 -332 -9 l-331 0 -56 53 c-31 28 -79 70 -106 93
l-49 40 57 33 c54 31 137 122 137 151 0 14 27 12 58 -5z m-48 -661 c0 -3 -22
-30 -48 -59 -67 -73 -81 -129 -78 -301 2 -72 6 -136 10 -143 10 -16 -1 -14
-24 6 -11 10 -20 25 -20 33 0 23 -47 64 -73 65 -33 2 -47 13 -47 38 0 16 -3
18 -9 8 -7 -10 -13 -11 -30 -2 -11 7 -21 17 -21 23 0 7 -16 9 -49 5 -59 -7
-71 3 -71 59 0 26 -8 53 -23 75 -25 38 -142 129 -164 129 -22 0 -147 -76 -187
-114 -37 -34 -48 -80 -25 -103 7 -7 1 -16 -23 -30 -24 -14 -44 -41 -71 -96
-20 -42 -37 -82 -37 -88 0 -6 19 -29 42 -50 l43 -39 -53 0 c-38 0 -54 -4 -59
-15 -7 -20 -3 -24 44 -40 33 -11 39 -19 46 -52 4 -21 22 -56 39 -77 29 -35 35
-38 70 -33 22 3 57 17 78 31 31 20 53 26 116 28 l78 3 30 48 29 48 -16 53
c-29 89 -15 146 23 98 30 -36 83 -62 128 -62 35 0 56 8 103 42 33 22 62 38 66
34 9 -8 -92 -103 -180 -169 -37 -27 -64 -54 -60 -58 4 -4 57 -15 117 -24 l109
-17 99 43 99 42 40 -21 c64 -35 82 -30 154 43 50 49 67 61 72 50 8 -24 -51
-127 -88 -153 -39 -27 -109 -47 -118 -34 -9 13 -69 32 -101 32 -26 0 -111 -47
-125 -70 -18 -29 16 -34 231 -32 147 1 221 6 231 14 19 15 267 12 298 -5 12
-6 46 -41 76 -76 57 -68 79 -83 79 -56 0 26 23 12 32 -20 8 -30 23 -45 49 -45
9 0 43 -18 75 -39 60 -40 136 -65 334 -111 52 -12 126 -36 165 -53 50 -23 83
-32 120 -31 93 1 103 11 104 97 1 53 -12 62 -28 17 -7 -22 -16 -30 -33 -30
-57 1 -63 43 -9 55 17 4 31 10 31 15 0 11 -278 96 -429 130 -30 7 -82 24 -115
37 -34 14 -95 36 -136 50 -136 45 -259 111 -312 165 -66 68 -63 84 10 47 54
-27 63 -28 111 -19 28 5 60 14 71 20 10 5 42 10 71 10 l52 0 -27 33 c-14 17
-31 43 -36 56 -10 23 -14 23 -92 19 -70 -4 -83 -8 -99 -29 -10 -13 -19 -22
-21 -19 -2 3 -18 35 -37 72 -25 51 -32 75 -27 98 6 34 -3 56 -51 114 -18 22
-33 48 -33 58 0 10 -4 18 -10 18 -5 0 -10 7 -10 15 0 8 5 15 10 15 16 0 11 72
-8 107 -26 48 -69 77 -118 79 -48 2 -64 9 -64 30 0 12 32 14 199 14 242 0 286
-5 298 -34 l10 -21 12 23 c7 13 21 22 35 22 22 0 24 -5 28 -62 3 -35 1 -73 -3
-86 -13 -33 -11 -110 2 -118 6 -3 9 -17 6 -30 -2 -14 -1 -27 3 -29 5 -3 11
-23 15 -45 7 -44 14 -48 99 -52 73 -4 79 -22 36 -103 -52 -96 -16 -110 78 -30
38 32 86 114 102 175 14 53 20 289 9 340 -4 19 -6 36 -3 39 3 4 270 5 412 2
l42 -1 0 -655 0 -655 -997 -1 c-549 -1 -1178 -1 -1399 -2 -220 0 -406 3 -412
7 -9 5 -12 171 -12 655 0 356 3 651 7 654 8 9 1143 9 1143 1z m4410 -3 c0 -16
-29 -20 -248 -36 -246 -17 -470 -40 -534 -54 -23 -5 -76 -13 -115 -17 -40 -3
-70 -10 -68 -14 3 -5 82 -34 175 -65 94 -31 170 -60 170 -65 0 -10 -31 -16
-117 -25 -35 -4 -63 -11 -63 -16 0 -5 15 -15 33 -23 17 -7 43 -23 56 -35 19
-17 37 -21 88 -21 40 0 62 -4 58 -10 -3 -5 -21 -10 -38 -10 -18 0 -57 -7 -87
-16 -42 -12 -183 -46 -220 -53 -3 -1 46 -27 108 -57 62 -31 111 -58 109 -61
-3 -2 -58 -10 -123 -18 -219 -25 -374 -49 -374 -56 0 -4 15 -10 33 -14 91 -19
230 -79 260 -113 23 -25 19 -33 -41 -74 -66 -44 -262 -192 -422 -318 -75 -59
-145 -112 -156 -118 -15 -8 -154 -11 -448 -12 l-426 0 0 655 0 655 1195 0
c695 0 1195 -4 1195 -9z m-4260 -105 c0 -15 -18 -31 -26 -23 -7 7 7 37 17 37
5 0 9 -6 9 -14z m120 -51 c0 -25 -18 -17 -34 17 -23 46 -19 57 9 26 14 -15 25
-34 25 -43z m-310 -165 c0 -12 -29 -20 -35 -10 -9 15 4 30 20 23 8 -3 15 -9
15 -13z m-384 -64 c10 -8 16 -17 13 -20 -10 -10 -61 13 -54 24 8 14 18 13 41
-4z m437 -73 c6 -31 -5 -49 -22 -39 -12 8 -15 49 -4 59 13 13 21 7 26 -20z
m91 -18 c3 -13 17 -27 31 -32 l24 -8 -20 -32 c-25 -39 -44 -42 -60 -10 -7 12
-19 27 -28 33 -12 10 -13 17 -4 35 6 13 14 32 17 43 8 23 31 7 40 -29z m-784
-46 c0 -5 -7 -9 -15 -9 -15 0 -20 12 -9 23 8 8 24 -1 24 -14z m7085 -53 c11
-51 10 -159 -2 -163 -10 -3 -13 11 -13 50 0 50 -2 55 -20 50 -12 -3 -20 0 -20
7 0 6 9 14 20 17 24 6 26 29 4 41 -20 11 -10 34 11 25 9 -3 17 -15 20 -27z
m219 -54 c-1 -106 -1 -112 -14 -112 -11 0 -14 182 -3 193 15 16 18 3 17 -81z
m56 28 c0 -27 -5 -52 -11 -55 -7 -5 -9 13 -7 53 4 71 18 73 18 2z m-1425 2
c-7 -82 -18 -141 -26 -136 -10 6 -12 167 -3 177 16 16 32 -7 29 -41z m113 -47
c-3 -90 -10 -117 -22 -77 -4 15 -10 145 -7 165 1 4 8 7 16 7 13 0 15 -15 13
-95z m50 46 c-2 -8 -9 -16 -15 -19 -9 -2 -13 8 -13 35 1 36 1 37 16 18 8 -11
13 -26 12 -34z m64 23 c-2 -10 4 -23 13 -30 15 -11 15 -13 -4 -23 -15 -8 -21
-23 -23 -58 -2 -28 -8 -48 -17 -51 -11 -4 -12 11 -6 84 4 49 9 93 12 97 9 15
28 0 25 -19z m87 -66 c-1 -77 -3 -86 -10 -53 -11 56 -11 145 1 145 6 0 10 -37
9 -92z m225 46 c8 -65 8 -144 -2 -144 -4 0 -14 6 -20 12 -10 10 -15 10 -22 -2
-7 -12 -12 -12 -21 -3 -24 24 -31 173 -8 173 11 0 29 -68 22 -86 -7 -19 5 -64
17 -64 6 0 10 34 10 80 0 88 14 107 24 34z m106 31 c0 -8 -7 -15 -15 -15 -8 0
-15 -7 -15 -16 0 -34 -34 -154 -40 -143 -4 6 -6 19 -4 28 22 118 29 147 38
153 18 13 36 9 36 -7z m137 3 c14 -18 24 -75 16 -94 -9 -25 -23 4 -23 49 0 26
-4 37 -12 35 -9 -3 -14 -30 -16 -76 -3 -72 6 -90 28 -54 9 15 10 14 8 -7 -4
-31 -33 -50 -50 -33 -14 14 -13 128 2 166 10 28 31 34 47 14z m108 -5 c-3 -10
-11 -56 -17 -102 -15 -111 -33 -84 -23 35 7 75 10 84 27 84 15 0 18 -4 13 -17z
m85 -77 c0 -88 -12 -129 -26 -91 -9 22 6 185 17 185 5 0 9 -42 9 -94z m80 71
c0 -13 3 -60 6 -103 9 -110 -11 -87 -29 34 -12 87 -12 92 5 92 12 0 18 -8 18
-23z m187 -49 c2 -85 -5 -118 -18 -97 -10 16 -12 153 -2 162 15 16 19 3 20
-65z m51 -26 c-4 -108 -23 -107 -24 1 -1 87 3 104 18 89 5 -5 8 -46 6 -90z
m2533 81 c0 -5 3 -20 5 -35 4 -23 1 -28 -15 -28 -26 0 -41 48 -20 61 17 11 29
11 30 2z m469 -31 c0 -29 -34 -60 -45 -42 -4 6 1 13 10 16 10 4 13 13 10 25
-4 10 -3 23 0 29 11 17 25 1 25 -28z m-3375 18 c3 -5 1 -10 -4 -10 -6 0 -11 5
-11 10 0 6 2 10 4 10 3 0 8 -4 11 -10z m3038 -11 c17 -1 18 -2 5 -6 -22 -5
-24 -23 -3 -23 8 0 15 -4 15 -10 0 -5 -9 -10 -20 -10 -15 0 -20 7 -20 25 0 14
-5 25 -11 25 -7 0 -9 -10 -6 -26 4 -21 1 -25 -17 -22 -32 5 -29 50 4 58 14 4
27 3 28 -2 2 -4 13 -9 25 -9z m97 11 c0 -5 -5 -10 -11 -10 -5 0 -7 5 -4 10 3
6 8 10 11 10 2 0 4 -4 4 -10z m45 -20 c7 -33 -1 -54 -17 -44 -5 3 -7 17 -4 30
4 14 2 24 -4 24 -5 0 -10 5 -10 10 0 24 29 7 35 -20z m35 8 c0 -16 -3 -19 -11
-11 -6 6 -8 16 -5 22 11 17 16 13 16 -11z m80 -19 c0 -33 -3 -40 -16 -35 -9 3
-21 6 -27 6 -6 0 -1 7 11 16 17 11 20 19 13 28 -6 7 -8 16 -4 19 15 16 23 4
23 -34z m233 34 c4 -3 -3 -11 -15 -17 -12 -6 -23 -17 -26 -25 -3 -10 4 -9 27
5 17 10 31 22 31 27 0 13 25 2 26 -11 1 -7 2 -17 3 -23 1 -8 6 -7 16 1 11 9
12 15 5 20 -7 5 -6 11 5 20 11 9 15 9 15 1 0 -8 12 -11 33 -9 30 3 32 1 35
-29 4 -42 -18 -44 -48 -5 l-21 27 6 -28 c5 -26 4 -27 -31 -23 -21 3 -41 11
-45 18 -6 9 -9 9 -9 1 0 -17 -39 -26 -55 -13 -20 17 -14 54 10 62 28 9 31 9
38 1z m-430 -30 c-5 -12 -1 -14 15 -8 17 5 22 2 22 -13 0 -16 -6 -19 -32 -18
-28 1 -33 6 -33 26 0 34 3 40 20 34 7 -3 11 -12 8 -21z m237 7 c0 -5 -2 -10
-4 -10 -3 0 -8 5 -11 10 -3 6 -1 10 4 10 6 0 11 -4 11 -10z m88 -20 c2 -21 -2
-30 -13 -30 -17 0 -18 4 -9 38 9 31 19 27 22 -8z m-198 -20 c-6 -11 -13 -20
-15 -20 -3 0 -5 9 -5 20 0 11 7 20 15 20 13 0 14 -4 5 -20z m-2390 -16 c0 -8
-4 -12 -10 -9 -5 3 -10 13 -10 21 0 8 5 12 10 9 6 -3 10 -13 10 -21z m60 6 c0
-5 -4 -10 -10 -10 -5 0 -10 5 -10 10 0 6 5 10 10 10 6 0 10 -4 10 -10z m95 0
c3 -5 1 -10 -4 -10 -6 0 -11 5 -11 10 0 6 2 10 4 10 3 0 8 -4 11 -10z m85 0
c0 -5 -4 -10 -10 -10 -5 0 -10 5 -10 10 0 6 5 10 10 10 6 0 10 -4 10 -10z m40
0 c0 -5 -5 -10 -11 -10 -5 0 -7 5 -4 10 3 6 8 10 11 10 2 0 4 -4 4 -10z
m-1610 -63 c0 -16 -4 -26 -10 -22 -5 3 -10 23 -10 43 0 28 3 33 10 22 5 -8 10
-28 10 -43z m-5420 29 c0 -21 -30 -89 -37 -83 -7 8 19 97 29 97 4 0 8 -6 8
-14z m5047 -28 c-3 -8 -6 -5 -6 6 -1 11 2 17 5 13 3 -3 4 -12 1 -19z m3963 -4
c0 -8 -7 -14 -15 -14 -15 0 -21 21 -9 33 10 9 24 -2 24 -19z m927 -9 c4 -28
-8 -32 -27 -10 -10 12 -10 18 0 30 15 18 23 13 27 -20z m-1529 2 c3 -15 -2
-18 -30 -15 -22 2 -34 9 -36 21 -3 15 2 18 30 15 22 -2 34 -9 36 -21z m52 3
c0 -11 -6 -20 -13 -20 -19 0 -27 10 -20 26 8 21 33 17 33 -6z m88 -2 c3 -14
-3 -18 -26 -18 -28 0 -48 20 -34 34 13 13 57 1 60 -16z m75 8 c7 -17 -1 -26
-24 -26 -21 0 -33 15 -24 30 9 15 42 12 48 -4z m137 -7 c0 -13 -11 -16 -55
-16 -38 0 -55 3 -55 12 0 17 16 22 67 21 33 -1 43 -5 43 -17z m80 1 c0 -22 -3
-23 -37 -14 -34 9 -29 34 7 34 23 0 30 -4 30 -20z m99 14 c45 -9 38 -19 -14
-20 -31 0 -45 4 -45 13 0 14 13 16 59 7z m111 -9 c0 -8 -4 -15 -9 -15 -13 0
-22 16 -14 24 11 11 23 6 23 -9z m78 -9 c3 -14 0 -16 -15 -8 -10 5 -24 7 -30
5 -7 -3 -13 0 -13 5 0 11 27 21 45 17 6 -1 12 -10 13 -19z m88 14 c8 0 14 -5
14 -11 0 -6 -6 -9 -14 -6 -7 3 -19 0 -25 -6 -8 -8 -14 -8 -22 0 -15 15 -1 36
18 29 8 -3 21 -6 29 -6z m533 1 c16 -10 6 -31 -14 -31 -17 0 -28 17 -20 30 8
12 16 12 34 1z m91 -17 c0 -8 -10 -14 -25 -14 -29 0 -35 26 -7 33 22 5 32 -1
32 -19z m190 -5 c0 -5 -13 -9 -30 -9 -33 0 -43 26 -12 32 18 5 42 -9 42 -23z
m-756 -6 c-1 -16 -2 -37 -3 -49 -1 -16 -8 -21 -31 -21 -19 0 -30 5 -30 14 0 8
5 11 10 8 19 -12 38 14 33 45 -3 21 0 30 9 30 9 0 13 -10 12 -27z m46 7 c0
-11 -4 -20 -10 -20 -5 0 -10 2 -10 4 0 2 -3 11 -6 20 -4 11 -1 16 10 16 9 0
16 -8 16 -20z m58 -3 c2 -10 -3 -17 -12 -17 -10 0 -16 9 -16 21 0 24 23 21 28
-4z m94 -6 c7 -20 6 -22 -6 -12 -7 6 -21 9 -30 5 -10 -4 -16 -1 -16 9 0 15 17
27 34 23 5 -1 13 -13 18 -25z m51 14 c1 -5 -6 -11 -15 -13 -11 -2 -18 3 -18
13 0 17 30 18 33 0z m87 2 c0 -21 -12 -28 -27 -16 -19 16 -16 29 7 29 11 0 20
-6 20 -13z m58 -5 c3 -9 -3 -13 -19 -10 -12 1 -24 9 -27 16 -3 9 3 13 19 10
12 -1 24 -9 27 -16z m220 0 c2 -7 -3 -12 -12 -12 -9 0 -16 7 -16 16 0 17 22
14 28 -4z m-3138 -2 c0 -5 -4 -10 -10 -10 -5 0 -10 5 -10 10 0 6 5 10 10 10 6
0 10 -4 10 -10z m50 6 c0 -3 -4 -8 -10 -11 -5 -3 -10 -1 -10 4 0 6 5 11 10 11
6 0 10 -2 10 -4z m30 -6 c0 -5 -5 -10 -11 -10 -5 0 -7 5 -4 10 3 6 8 10 11 10
2 0 4 -4 4 -10z m70 0 c0 -5 -4 -10 -10 -10 -5 0 -10 5 -10 10 0 6 5 10 10 10
6 0 10 -4 10 -10z m2173 -42 c9 2 17 -3 17 -11 0 -22 -10 -26 -36 -17 -15 6
-26 6 -30 -1 -4 -7 -10 -6 -19 1 -7 6 -16 7 -19 2 -8 -14 -66 -1 -66 14 0 17
27 18 33 2 4 -10 8 -10 15 1 5 7 14 11 18 9 5 -3 18 -2 29 2 11 4 25 5 30 1 6
-3 18 -4 28 -3z m127 -24 c0 -16 -26 -19 -34 -5 -4 5 -3 16 0 25 5 13 9 14 20
5 8 -6 14 -18 14 -25z m-330 -15 c0 -5 -23 -9 -51 -9 -38 0 -55 5 -65 18 -12
15 -13 15 -14 1 0 -12 -8 -16 -31 -14 -28 2 -65 24 -43 26 5 0 29 2 54 4 25 1
54 -2 64 -7 14 -8 21 -6 28 6 8 15 11 15 33 0 14 -9 25 -20 25 -25z m260 21
c0 -11 -4 -20 -9 -20 -14 0 -23 18 -16 30 10 17 25 11 25 -10z m400 0 c0 -11
-7 -20 -15 -20 -18 0 -19 12 -3 28 16 16 18 15 18 -8z m228 -3 c4 -22 -27 -35
-38 -16 -10 15 7 42 24 36 6 -2 12 -11 14 -20z m252 6 c0 -15 2 -16 10 -3 7
11 12 12 21 3 6 -6 8 -16 5 -22 -10 -15 -77 -10 -83 6 -4 11 -8 10 -19 -4 -10
-14 -15 -15 -25 -6 -8 8 -19 9 -35 3 -14 -6 -26 -6 -29 0 -12 20 6 27 66 28
34 1 64 3 67 6 11 12 22 6 22 -11z m-1444 -6 c23 -23 -51 -34 -85 -13 -7 5
-16 4 -20 0 -9 -14 -114 -11 -118 3 -3 7 9 13 29 15 51 5 188 1 194 -5z m84
-7 c0 -21 -15 -27 -25 -10 -7 12 2 30 16 30 5 0 9 -9 9 -20z m696 7 c4 -4 13
-2 21 5 10 8 17 8 25 0 17 -17 -1 -34 -31 -26 -14 4 -36 6 -48 6 -22 -2 -30 8
-17 21 8 8 41 4 50 -6z m131 -10 c-5 -16 -57 -18 -57 -2 0 15 27 24 48 17 7
-2 11 -9 9 -15z m133 8 c0 -19 -13 -25 -38 -19 -36 10 -33 30 4 31 22 1 34 -4
34 -12z m77 -9 c-5 -15 -37 -20 -49 -8 -6 6 -8 15 -4 20 8 13 58 2 53 -12z
m153 10 c0 -8 -5 -18 -10 -21 -13 -8 -42 14 -34 26 9 15 44 10 44 -5z m-1240
-6 c0 -5 -4 -10 -10 -10 -5 0 -10 5 -10 10 0 6 5 10 10 10 6 0 10 -4 10 -10z
m-2863 -62 c-3 -8 -6 -5 -6 6 -1 11 2 17 5 13 3 -3 4 -12 1 -19z m550 0 c-3
-8 -6 -5 -6 6 -1 11 2 17 5 13 3 -3 4 -12 1 -19z m-473 -3 c-4 -8 -8 -15 -10
-15 -2 0 -4 7 -4 15 0 8 4 15 10 15 5 0 7 -7 4 -15z m163 -7 c-3 -8 -6 -5 -6
6 -1 11 2 17 5 13 3 -3 4 -12 1 -19z m83 8 c0 -8 -4 -18 -10 -21 -5 -3 -10 3
-10 14 0 12 5 21 10 21 6 0 10 -6 10 -14z m2942 -8 c17 17 24 15 25 -8 1 -11
-4 -20 -12 -20 -7 0 -19 -2 -27 -5 -7 -3 -22 1 -33 9 -17 12 -17 16 -5 31 13
16 15 16 27 -1 10 -14 16 -15 25 -6z m210 10 c7 -19 -2 -38 -18 -38 -8 0 -14
8 -14 18 0 30 23 44 32 20z m-3325 -20 c-3 -8 -6 -5 -6 6 -1 11 2 17 5 13 3
-3 4 -12 1 -19z m3183 2 c0 -11 -7 -20 -15 -20 -15 0 -21 21 -8 33 12 13 23 7
23 -13z m89 6 c19 -12 2 -26 -34 -26 -34 0 -51 12 -40 30 6 10 55 8 74 -4z
m199 -9 c3 -14 -5 -17 -37 -18 -23 -1 -47 -2 -53 -3 -7 -1 -14 8 -16 20 -3 19
1 21 50 19 40 -1 54 -6 56 -18z m46 17 c25 -10 19 -34 -9 -34 -24 0 -34 18
-18 33 8 8 8 8 27 1z m-481 -18 c7 -18 -1 -26 -25 -26 -18 0 -25 20 -11 33 11
12 31 8 36 -7z m555 2 c-3 -7 -11 -13 -18 -13 -7 0 -15 6 -17 13 -3 7 4 12 17
12 13 0 20 -5 18 -12z m43 -3 c-1 -15 -24 -12 -29 3 -3 9 2 13 12 10 10 -1 17
-7 17 -13z m-8717 -142 c7 -8 12 -9 54 -11 30 -3 29 -32 -1 -32 -13 0 -27 3
-31 7 -4 4 -17 8 -29 8 -12 0 -23 7 -25 18 -3 17 18 24 32 10z m111 -33 c-3
-5 3 -10 14 -10 11 0 23 -5 27 -12 5 -8 -2 -9 -26 -4 -19 3 -35 8 -38 10 -6 7
8 26 19 26 6 0 7 -4 4 -10z m95 -25 c0 -9 10 -15 23 -16 12 0 16 -3 9 -6 -21
-8 -62 6 -62 22 0 8 7 15 15 15 8 0 15 -7 15 -15z m120 -35 c0 -22 -12 -25
-41 -9 -25 13 -16 29 17 29 17 0 24 -5 24 -20z m63 -3 c29 -11 20 -30 -10 -22
-35 8 -37 10 -29 32 4 11 10 13 14 7 4 -6 15 -13 25 -17z m6190 -462 c17 -5
26 -15 28 -33 2 -15 2 -301 -1 -637 l-5 -609 -1317 -1 -1318 0 0 637 c0 598 1
637 18 640 30 7 2568 9 2595 3z m-5256 -18 c6 -7 -38 -11 -89 -8 -16 0 -28 -4
-28 -10 0 -7 -10 -9 -25 -7 -14 3 -28 1 -31 -4 -3 -5 -14 -2 -24 7 -11 10 -20
12 -24 6 -4 -5 -2 -12 4 -16 15 -10 12 -35 -5 -35 -8 0 -15 -9 -15 -21 0 -11
-5 -17 -10 -14 -6 3 -13 0 -16 -9 -3 -8 -14 -13 -24 -11 -22 4 -37 -40 -20
-60 6 -8 7 -16 2 -19 -12 -7 -2 -57 15 -74 7 -8 13 -9 13 -3 0 6 5 11 11 11 5
0 8 -4 4 -9 -3 -5 0 -13 7 -17 13 -8 -80 -34 -94 -27 -10 5 -10 153 -2 257 l7
77 168 -4 c93 -2 172 -7 176 -10z m1599 2 c14 -24 -24 -38 -131 -49 -60 -5
-151 -15 -202 -21 -107 -13 -171 -6 -153 17 7 8 20 14 29 15 12 0 11 2 -4 9
-18 8 -18 9 5 10 14 1 42 2 63 2 20 0 37 4 37 9 0 17 345 24 356 8z m-1413 -6
c-13 -2 -23 -12 -23 -21 -1 -15 -2 -15 -11 1 -6 9 -14 15 -20 12 -5 -3 -17 -1
-26 4 -14 8 -3 10 42 9 33 0 50 -3 38 -5z m8248 -168 c7 -720 6 -821 -3 -838
-5 -10 -12 -17 -14 -14 -3 3 -22 1 -42 -4 -31 -7 -47 -3 -100 23 -34 17 -65
35 -68 40 -8 13 15 68 39 95 17 19 18 27 9 50 -6 15 -16 65 -21 110 -8 62 -21
104 -55 177 -86 182 -173 242 -373 256 -166 11 -225 -3 -245 -56 -10 -29 -30
-45 -113 -95 -55 -33 -120 -79 -145 -104 -25 -24 -49 -44 -55 -45 -5 0 -21 35
-35 77 -17 50 -32 79 -42 81 -9 2 -30 -12 -46 -30 l-31 -32 -65 62 c-45 43
-72 62 -90 62 -17 0 -26 5 -26 16 0 13 -8 15 -37 12 -66 -8 -207 34 -165 49 6
3 10 9 6 14 -3 5 6 9 20 9 14 0 26 5 26 12 0 9 3 9 12 0 14 -14 58 -16 58 -3
0 5 10 11 23 14 12 2 30 8 40 12 13 6 17 2 17 -16 0 -17 3 -20 9 -11 6 10 10
8 14 -9 4 -13 9 -20 13 -16 4 4 14 1 22 -6 11 -8 14 -8 9 0 -4 6 -3 14 2 17 5
4 12 2 16 -3 3 -6 12 -8 20 -4 10 3 15 -1 15 -12 0 -9 4 -13 10 -10 8 5 64
-19 80 -35 3 -3 21 -6 40 -6 19 -1 36 -7 38 -14 3 -9 6 -9 11 -1 4 6 22 13 39
14 18 1 32 5 32 9 0 4 15 10 34 13 23 5 36 14 40 28 4 17 7 18 21 7 12 -10 21
-10 38 -2 12 5 30 13 40 16 9 3 18 16 18 28 1 17 3 18 6 6 4 -16 9 -14 42 12
24 20 44 28 54 24 9 -3 17 -2 17 3 0 6 16 18 36 29 28 14 38 16 41 7 3 -7 8
-13 12 -13 9 0 68 49 61 51 -3 1 -25 3 -50 4 -97 7 -256 28 -280 37 -14 5
-210 9 -470 8 -245 -1 -483 -1 -530 1 -101 3 -130 3 -324 -1 -109 -3 -151 0
-154 8 -4 13 -64 17 -76 5 -3 -4 -14 -8 -22 -9 -32 -5 -46 -15 -41 -28 4 -9 0
-12 -12 -9 -11 3 -17 -2 -18 -14 -9 -100 -4 -283 7 -283 6 0 10 -9 10 -21 0
-11 -4 -18 -9 -15 -5 3 -9 -44 -10 -109 0 -64 -3 -121 -7 -127 -5 -7 -3 -8 5
-3 10 5 11 -17 6 -104 -7 -121 -1 -171 21 -171 8 0 14 -7 14 -15 0 -8 5 -15
10 -15 6 0 10 -7 10 -15 0 -9 7 -18 15 -21 8 -4 13 -9 10 -14 -2 -4 7 -5 20
-2 21 4 25 1 25 -21 0 -22 6 -27 35 -33 19 -3 35 -10 35 -15 0 -5 7 -9 15 -9
8 0 15 -6 15 -12 0 -9 4 -8 10 2 6 10 10 11 10 3 0 -7 10 -13 23 -13 18 0 19
2 7 10 -8 5 -13 10 -10 11 3 0 14 2 25 4 11 2 21 9 23 15 3 8 8 7 18 -1 8 -6
14 -7 14 -2 0 5 18 9 40 10 25 1 40 -2 40 -10 0 -7 4 -6 10 3 5 8 10 10 10 4
0 -6 12 -10 27 -8 15 1 33 -2 41 -8 7 -6 12 -7 11 -2 -4 21 2 26 16 14 9 -7
44 -13 80 -14 56 -1 65 2 65 17 0 19 20 24 21 5 0 -9 2 -9 5 -2 6 15 44 6 44
-10 0 -6 12 -12 27 -13 19 -1 22 1 12 8 -10 6 -8 9 11 10 14 0 39 2 55 2 17 1
35 -4 41 -12 15 -19 44 -7 44 17 0 11 7 25 15 32 12 10 15 10 15 0 0 -19 45
37 72 88 12 25 34 57 49 71 21 21 25 35 24 75 0 39 4 55 22 74 26 29 30 47 8
38 -13 -5 -14 -2 -4 15 6 11 8 23 5 27 -3 3 -6 0 -6 -6 0 -7 -7 -12 -15 -12
-18 0 -20 16 -2 23 8 4 4 12 -13 26 -20 16 -23 22 -12 32 10 11 12 10 12 -4 0
-9 10 -22 22 -28 l21 -12 -21 37 c-39 66 -24 52 44 -40 82 -110 103 -156 104
-216 0 -41 -4 -49 -36 -75 -91 -71 -214 -210 -214 -240 0 -10 -6 -13 -17 -8
-10 4 -27 9 -38 12 -11 3 -238 9 -505 13 -267 5 -504 9 -527 9 l-43 1 0 569 0
570 38 3 c20 2 641 3 1380 3 l1342 0 1 -170z m-7396 141 c6 -7 19 -16 30 -21
19 -8 19 -8 2 -12 -10 -3 -24 2 -30 10 -14 17 -43 28 -51 20 -10 -10 15 -33
28 -26 6 3 8 3 4 -2 -4 -4 -3 -14 3 -22 9 -10 8 -13 -4 -13 -9 0 -17 7 -19 15
-3 13 -7 13 -29 2 -14 -8 -34 -12 -44 -11 -11 2 -28 -4 -37 -13 -10 -9 -21
-13 -25 -10 -3 4 0 7 8 8 8 0 4 4 -8 9 -31 13 -29 28 5 33 l27 3 -32 13 c-18
7 -33 16 -33 19 0 13 105 0 113 -14 4 -8 13 -14 19 -14 9 0 9 3 0 12 -7 7 -12
17 -12 23 0 15 72 7 85 -9z m-925 -2 c0 -2 -7 -4 -15 -4 -8 0 -15 4 -15 10 0
5 7 7 15 4 8 -4 15 -8 15 -10z m714 -25 c-10 -16 -24 -9 -24 12 0 18 2 19 15
9 8 -7 12 -16 9 -21z m-3348 -26 c-14 -96 -19 -115 -33 -120 -8 -3 -47 4 -86
15 -40 12 -95 23 -123 25 -31 2 -63 12 -81 25 -21 15 -48 22 -94 24 -64 3 -64
3 -67 35 -4 40 -8 40 272 42 l218 1 -6 -47z m409 10 c26 -39 33 -77 15 -88 -5
-3 -10 -14 -10 -23 0 -9 -9 -28 -20 -42 -16 -21 -20 -22 -20 -7 0 10 -4 15
-10 12 -5 -3 -10 -21 -10 -39 0 -30 -39 -98 -40 -70 0 26 -30 21 -65 -11 -19
-19 -48 -42 -64 -51 -22 -13 -33 -32 -47 -78 -9 -34 -28 -80 -42 -103 -40 -72
-5 -88 51 -23 32 37 57 51 57 31 0 -4 14 -25 30 -46 47 -59 49 -82 11 -117
-24 -23 -35 -28 -44 -19 -6 6 -16 11 -22 11 -5 0 -1 -7 9 -15 26 -20 16 -27
-40 -31 -25 -1 -54 -10 -63 -18 -26 -24 -46 -20 -75 15 -26 31 -34 73 -16 84
13 8 13 45 -2 100 -12 44 -12 45 23 82 88 93 94 115 55 192 -15 29 -26 69 -28
104 -2 34 -8 59 -15 62 -35 13 5 109 50 118 12 2 86 5 164 6 l142 1 26 -37z
m2839 21 c3 -8 2 -12 -4 -9 -6 3 -10 10 -10 16 0 14 7 11 14 -7z m-2489 0 c12
-5 14 -9 4 -14 -14 -9 -39 -2 -39 11 0 11 12 11 35 3z m1892 -31 c-3 -10 -5
-4 -5 12 0 17 2 24 5 18 2 -7 2 -21 0 -30z m46 -8 c-7 -21 -13 -19 -13 6 0 11
4 18 10 14 5 -3 7 -12 3 -20z m586 -23 c22 2 41 0 41 -3 0 -12 -130 -30 -240
-34 -58 -2 -91 -2 -75 1 17 2 66 9 109 15 44 6 86 17 94 26 11 11 17 11 22 3
5 -8 24 -11 49 -8z m-279 -6 c0 -3 -4 -8 -10 -11 -5 -3 -10 -1 -10 4 0 6 5 11
10 11 6 0 10 -2 10 -4z m-3535 -26 c3 -5 5 -10 3 -10 -2 0 -28 -4 -60 -9 -63
-11 -98 -5 -98 15 0 11 18 14 74 14 41 0 78 -4 81 -10z m1385 -4 c0 -2 -21
-11 -47 -20 -34 -12 -50 -13 -59 -5 -23 19 -5 29 52 29 30 0 54 -2 54 -4z
m238 -73 c3 -60 3 -61 35 -66 100 -18 129 -26 180 -55 l55 -31 27 21 c24 19
27 19 44 3 11 -9 24 -36 30 -59 6 -24 19 -54 30 -67 l19 -24 44 30 c33 24 44
38 46 63 2 20 9 32 18 32 11 0 12 -4 3 -19 -9 -14 -8 -25 5 -52 l16 -33 -74
-76 c-40 -41 -82 -85 -92 -97 -22 -28 -50 -31 -39 -5 4 9 12 39 17 66 8 44 7
51 -12 70 l-21 21 -25 -28 c-26 -30 -33 -84 -13 -104 21 -21 0 -33 -45 -27
-38 6 -45 3 -64 -21 -24 -30 -37 -27 -47 12 -9 38 -23 53 -49 53 -25 1 -59 43
-54 68 4 20 74 56 94 48 16 -6 19 -42 4 -51 -13 -8 -13 -25 0 -25 20 0 79 45
90 68 18 40 11 63 -29 104 -33 33 -44 38 -68 32 -15 -4 -34 -12 -42 -18 -10
-8 -17 -6 -27 8 -17 25 -48 14 -39 -14 6 -17 2 -20 -29 -20 -19 0 -38 -5 -41
-10 -9 -14 -24 -3 -35 26 -13 32 -40 32 -40 -1 0 -25 -18 -33 -36 -15 -16 16
-81 -8 -109 -42 -25 -29 -26 -36 -21 -97 4 -36 7 -83 9 -103 3 -51 16 -60 83
-59 54 0 84 -10 84 -30 0 -4 -10 -9 -22 -11 -19 -2 -22 -8 -20 -33 1 -16 4
-80 5 -142 2 -62 6 -115 9 -119 4 -3 27 3 51 15 24 11 51 21 59 21 19 0 58 59
58 88 0 59 74 13 85 -54 10 -59 12 -64 40 -74 33 -12 99 2 126 26 12 10 37 44
56 76 39 63 52 69 85 38 33 -30 93 -27 115 6 14 22 15 30 4 58 -25 60 -25 76
-3 76 12 0 23 -9 27 -20 4 -11 11 -18 16 -14 6 4 5 12 -5 22 -8 10 -18 29 -21
45 -4 15 -17 34 -28 42 -21 15 -21 15 -2 30 11 8 23 15 26 15 13 0 39 87 39
128 0 36 3 42 24 48 13 3 37 4 52 2 l29 -3 3 -390 2 -390 -442 2 c-405 3 -444
4 -453 20 -23 39 -89 103 -106 103 -12 0 -19 7 -19 20 0 11 -7 20 -15 20 -8 0
-15 -8 -15 -17 0 -15 -2 -16 -15 -2 -13 12 -13 21 -4 47 14 42 4 99 -22 112
-26 15 -35 7 -60 -51 -31 -71 -55 -62 -36 13 7 27 4 71 -8 155 -18 123 -20
133 -36 133 -6 0 -6 -7 0 -18 6 -11 6 -23 2 -28 -25 -27 -71 -216 -59 -238 11
-20 2 -36 -20 -36 -23 0 -62 -43 -62 -69 0 -26 -6 -26 -50 -2 -19 10 -53 24
-75 31 -50 16 -112 60 -147 104 l-28 35 30 23 c17 13 43 33 59 46 16 12 31 22
34 22 4 0 9 -16 13 -35 3 -19 10 -35 15 -35 5 0 9 -5 9 -11 0 -7 -9 -9 -21 -6
-13 3 -19 1 -16 -6 2 -7 27 -13 55 -15 43 -3 56 1 75 20 13 13 42 35 65 51 49
32 53 54 20 122 -21 43 -21 46 -5 62 15 15 21 16 38 5 17 -11 24 -10 46 8 16
12 34 18 47 14 19 -4 25 3 45 51 33 79 19 89 -55 36 -52 -37 -59 -40 -74 -26
-9 8 -23 15 -32 15 -8 0 -23 9 -33 20 -18 20 -18 23 -1 75 23 75 91 173 133
193 33 16 36 15 47 0 11 -14 19 -16 47 -8 51 15 57 12 19 -8 -19 -11 -48 -26
-64 -35 -46 -25 -96 -94 -96 -133 0 -50 19 -53 54 -8 49 63 91 96 173 140 89
47 104 64 85 95 -12 18 -12 23 0 30 7 5 20 9 28 9 8 1 60 14 115 30 55 16 105
28 110 26 6 -1 11 -30 13 -63z m-504 34 c34 -25 12 -34 -23 -10 -27 18 -30 23
-14 23 10 0 27 -6 37 -13z m2151 3 c3 -5 1 -10 -4 -10 -6 0 -11 5 -11 10 0 6
2 10 4 10 3 0 8 -4 11 -10z m-3690 -10 c18 -7 18 -9 3 -15 -24 -10 -71 -2 -76
13 -4 14 41 16 73 2z m2626 -10 c34 -19 20 -30 -38 -30 l-58 1 24 19 c26 22
44 25 72 10z m-881 -45 c0 -2 -10 -9 -22 -15 -22 -11 -22 -10 -4 4 21 17 26
19 26 11z m-423 -27 c-3 -8 -6 -5 -6 6 -1 11 2 17 5 13 3 -3 4 -12 1 -19z
m9022 -267 c-6 -2 -15 3 -20 10 -6 10 -9 11 -9 2 0 -7 -7 -13 -15 -13 -18 0
-19 14 -2 41 12 19 12 19 34 -8 14 -17 18 -29 12 -32z m-8419 9 c0 -5 -5 -10
-11 -10 -5 0 -7 5 -4 10 3 6 8 10 11 10 2 0 4 -4 4 -10z m8403 -23 c3 -8 -1
-14 -9 -14 -15 0 -18 9 -7 20 9 9 10 9 16 -6z m52 -167 c-3 -5 -10 -10 -16
-10 -5 0 -9 5 -9 10 0 6 7 10 16 10 8 0 12 -4 9 -10z m-9681 -826 c25 -4 46
-11 46 -17 0 -6 -27 -43 -59 -83 -73 -88 -94 -129 -115 -221 -20 -91 -20 -171
0 -244 16 -57 17 -58 48 -52 58 11 59 15 52 160 -4 83 -3 133 3 133 5 0 11
-10 13 -22 2 -15 11 -24 25 -26 22 -3 43 -45 43 -86 0 -12 4 -28 10 -36 5 -9
7 14 3 64 -6 77 -6 78 24 105 31 28 34 38 68 207 3 13 15 24 30 28 16 4 22 11
19 21 -4 8 -3 15 0 15 4 0 11 -11 16 -25 5 -14 23 -34 40 -43 47 -27 48 -48 2
-96 -36 -36 -62 -81 -62 -106 0 -13 60 -30 95 -27 27 2 30 -1 27 -25 -3 -32
37 -68 76 -68 25 0 25 0 7 -20 -10 -12 -25 -18 -32 -16 -8 4 -13 -3 -13 -18 0
-29 -31 -56 -103 -91 -42 -20 -66 -26 -89 -21 l-31 6 28 -26 c21 -19 26 -31
22 -52 -5 -25 0 -30 53 -60 69 -38 85 -39 111 -9 19 20 20 21 15 2 -26 -102
-62 -213 -82 -250 -13 -25 -24 -52 -24 -60 0 -8 -9 -20 -20 -28 -21 -15 -100
-151 -100 -173 0 -22 -19 -26 -89 -19 l-68 7 -12 50 c-6 27 -31 92 -56 143
-66 138 -144 216 -247 249 -41 13 -2 69 54 80 99 20 140 -7 316 -212 47 -55
59 -63 121 -82 37 -11 73 -20 80 -20 29 0 6 48 -53 110 -39 41 -77 95 -97 137
-18 37 -35 70 -37 73 -2 3 -44 5 -93 5 -56 1 -93 5 -101 13 -7 7 -25 12 -41
12 -36 0 -118 -20 -134 -32 -15 -12 -33 -2 -34 20 0 13 -2 12 -9 -4 -5 -12
-21 -24 -37 -27 -38 -8 -96 -48 -108 -75 -17 -39 -34 -24 -59 55 -61 194 -71
439 -27 663 12 58 21 106 21 107 0 2 82 4 183 6 100 1 216 3 258 5 42 1 97 -1
123 -4z m1059 -31 c9 -21 30 -62 47 -92 16 -30 30 -68 30 -85 l-1 -31 -21 30
c-44 60 -144 158 -181 176 -21 11 -35 24 -32 29 4 6 37 10 74 10 l68 0 16 -37z
m728 21 l257 -5 5 -57 c3 -31 3 -91 -1 -132 -4 -41 -5 -93 -2 -115 3 -22 4
-248 2 -503 l-4 -462 -483 0 c-462 0 -575 4 -575 20 0 4 37 45 81 91 98 101
129 145 180 254 52 110 76 191 89 300 21 169 -23 393 -110 554 -16 29 -27 58
-24 63 4 6 72 7 168 4 88 -4 276 -9 417 -12z m-2385 -16 c-34 -125 -49 -235
-50 -378 -1 -178 13 -271 56 -375 16 -38 35 -82 41 -97 10 -23 8 -32 -12 -59
-21 -28 -22 -33 -8 -47 14 -13 14 -19 2 -43 -8 -15 -16 -48 -17 -74 -1 -36 -7
-50 -26 -66 -36 -28 -51 -24 -117 30 -67 54 -236 158 -272 167 l-23 6 0 237
c0 130 5 288 10 351 9 106 44 322 57 356 4 11 38 14 185 14 l180 0 -6 -22z
m1384 -25 c74 -49 155 -127 170 -164 11 -26 10 -32 -6 -44 -34 -26 -61 -16
-146 51 -94 75 -132 96 -202 113 -57 14 -71 6 -57 -32 11 -28 46 -50 97 -61
40 -9 143 -100 160 -143 8 -18 14 -55 14 -83 0 -27 4 -50 8 -50 5 0 19 11 32
25 35 37 187 125 205 119 21 -8 105 34 106 54 2 22 17 -58 24 -128 4 -38 3
-52 -5 -44 -6 6 -12 32 -14 59 -2 27 -9 51 -16 53 -6 2 -11 -2 -9 -9 6 -47 -1
-57 -43 -64 -52 -9 -95 -32 -101 -55 -6 -24 29 -213 44 -237 7 -12 19 -18 30
-16 10 3 41 0 69 -7 46 -11 50 -14 50 -42 0 -37 -36 -160 -60 -208 -38 -74
-206 -251 -264 -279 -23 -11 -65 -23 -93 -27 -67 -8 -74 5 -39 82 30 64 34
122 10 131 -8 3 -13 12 -10 19 7 18 -21 18 -76 0 -89 -29 -202 -57 -259 -63
l-59 -6 0 57 c0 33 8 77 19 104 10 26 24 67 31 92 7 25 14 51 16 57 2 7 9 13
15 13 8 0 10 -16 5 -54 l-6 -53 33 -10 c17 -5 31 -15 30 -21 -2 -7 7 -12 20
-12 19 0 23 6 25 37 3 41 23 63 58 63 24 0 54 38 54 70 0 35 31 23 82 -31 26
-28 48 -47 49 -43 6 61 -18 164 -39 164 -5 0 -12 12 -15 28 -13 64 -24 79 -54
75 -21 -4 -32 -13 -41 -35 -12 -33 -28 -30 -42 8 -6 14 -18 24 -30 24 -11 0
-20 5 -20 11 0 5 -4 7 -10 4 -16 -10 -12 -48 4 -42 16 6 50 -38 42 -52 -10
-15 -46 -20 -46 -6 0 8 -7 21 -16 30 -13 12 -15 27 -10 64 5 37 3 51 -9 61 -9
8 -15 30 -15 59 0 26 -5 52 -11 58 -6 6 -11 58 -12 124 -1 74 -3 100 -8 74 -5
-32 -6 -25 -8 37 0 42 -6 89 -11 103 -18 46 -9 48 154 41 l151 -7 55 -36z
m7270 -123 c0 -100 -4 -160 -10 -160 -6 0 -10 58 -10 153 0 135 3 167 17 167
2 0 3 -72 3 -160z m-8015 93 c-4 -10 -10 -30 -13 -45 -2 -16 -8 -28 -13 -28
-15 0 -20 19 -10 37 5 10 12 26 15 36 3 9 10 17 17 17 7 0 8 -7 4 -17z m5392
-45 c-3 -8 -6 -5 -6 6 -1 11 2 17 5 13 3 -3 4 -12 1 -19z m0 -60 c-3 -8 -6 -5
-6 6 -1 11 2 17 5 13 3 -3 4 -12 1 -19z m-5018 -141 c13 -77 10 -114 -9 -102
-5 3 -10 16 -10 29 0 28 -28 62 -55 68 -15 3 -19 11 -18 33 4 49 10 57 45 53
33 -3 33 -4 47 -81z m3229 -53 c32 -9 69 -23 85 -31 l27 -14 -22 -40 -23 -40
37 -34 c40 -37 82 -46 92 -19 9 24 7 63 -4 85 -9 16 -7 19 10 19 12 0 30 -5
40 -10 14 -8 26 -7 40 2 19 11 24 10 40 -10 21 -26 35 -99 26 -136 -18 -74
-99 -116 -187 -97 -61 13 -164 64 -202 100 -62 57 -84 148 -52 211 18 35 19
35 93 14z m4411 -441 c-1 -259 -5 -381 -10 -333 -8 81 -10 706 -2 727 3 7 7
13 9 13 2 0 3 -183 3 -407z m-7569 286 c0 -5 -9 -4 -19 3 -11 7 -17 16 -14 20
5 10 33 -10 33 -23z m6500 -4 c0 -8 -4 -17 -10 -20 -6 -4 -10 5 -10 20 0 15 4
24 10 20 6 -3 10 -12 10 -20z m2902 -26 c15 -8 26 -8 43 1 32 17 75 8 96 -20
36 -48 43 -185 9 -185 -8 0 -25 19 -38 43 -13 23 -28 42 -34 42 -24 0 -79 -34
-113 -71 -55 -60 -64 -55 -120 74 -25 58 -32 102 -17 111 5 3 21 -4 38 -15 38
-25 52 -24 80 6 26 29 28 29 56 14z m-3273 -42 c1 -5 -3 -5 -9 -2 -5 3 -10 16
-9 28 0 21 1 21 9 2 5 -11 9 -24 9 -28z m-6249 -47 c0 -11 -7 -20 -15 -20 -8
0 -15 9 -15 20 0 11 7 20 15 20 8 0 15 -9 15 -20z m99 -107 c10 -22 10 -25 -2
-15 -8 7 -17 9 -20 5 -4 -3 -7 3 -7 15 0 30 14 28 29 -5z m3271 -157 c0 -7 -6
-19 -14 -25 -19 -16 -32 5 -16 24 16 19 30 19 30 1z m-4602 -186 c57 -29 106
-58 109 -65 2 -7 -7 -36 -21 -64 l-26 -51 -99 0 c-79 0 -100 3 -105 15 -3 8
-9 70 -12 137 l-7 122 29 -21 c16 -11 76 -44 132 -73z m702 -155 c11 -13 7
-15 -31 -15 -43 0 -45 13 -4 23 11 3 21 5 21 6 1 0 7 -6 14 -14z m549 -11 c2
-2 -38 -3 -90 -2 -74 1 -84 2 -49 8 41 6 129 2 139 -6z m7671 6 c0 -7 -427
-10 -1262 -9 -714 0 -1254 4 -1243 9 29 13 2505 13 2505 0z m3145 0 c4 -7
-457 -9 -1377 -8 -761 0 -1363 4 -1338 8 74 11 2708 11 2715 0z"/>
<path d="M2270 12235 c0 -4 10 -29 35 -90 24 -55 50 -221 36 -229 -5 -3 -7
-27 -5 -53 2 -27 -3 -207 -12 -401 -9 -194 -13 -356 -10 -359 4 -4 13 0 21 8
21 21 33 135 45 409 14 352 -4 511 -76 668 -21 45 -34 63 -34 47z"/>
<path d="M1980 11614 c-78 -53 -89 -72 -64 -108 11 -14 24 -26 29 -26 9 0 125
161 125 174 0 15 -30 1 -90 -40z"/>
<path d="M2215 11653 c-27 -7 -55 -33 -55 -52 0 -13 -2 -13 -9 -2 -12 18 -32
2 -146 -119 -85 -90 -182 -235 -173 -260 12 -38 338 257 397 360 43 77 42 86
-14 73z"/>
<path d="M900 11410 c0 -7 27 -41 60 -77 33 -36 60 -74 60 -83 0 -10 6 -23 14
-29 11 -9 18 -6 35 15 24 30 26 40 10 50 -6 3 -19 25 -29 48 -12 30 -28 48
-51 58 -50 23 -99 32 -99 18z"/>
<path d="M8120 12325 c-28 -42 -76 -102 -106 -134 -30 -32 -54 -63 -54 -68 0
-15 -82 -88 -150 -133 -36 -24 -98 -68 -138 -98 -63 -47 -80 -55 -136 -62 -36
-4 -69 -11 -75 -15 -20 -11 -1 -25 34 -25 27 0 45 -10 82 -45 25 -25 50 -45
54 -45 4 0 52 -36 106 -79 55 -43 122 -91 151 -105 61 -31 76 -50 185 -236 62
-106 90 -146 106 -148 11 -2 21 0 21 4 0 4 -20 51 -44 103 -40 86 -46 110 -60
231 -9 74 -17 143 -18 153 -3 15 19 25 116 57 68 22 124 46 129 56 5 9 20 25
33 37 13 11 24 24 24 28 0 3 -24 17 -52 29 -44 19 -76 24 -185 28 -73 2 -133
5 -133 6 2 16 72 172 82 184 8 9 27 69 42 132 16 63 37 137 47 163 23 57 23
57 5 57 -7 0 -37 -34 -66 -75z m-157 -379 c-38 -85 -46 -94 -72 -77 -11 7 -10
16 9 47 34 57 95 133 98 124 2 -4 -14 -46 -35 -94z m32 -323 c9 -19 14 -37 11
-41 -9 -9 -79 52 -100 87 -15 26 -16 34 -5 47 12 15 17 13 45 -21 18 -20 40
-52 49 -72z"/>
<path d="M3243 11940 c0 -41 2 -58 4 -37 2 20 2 54 0 75 -2 20 -4 3 -4 -38z"/>
<path d="M4610 10450 c-34 -17 -90 -99 -90 -131 0 -7 -6 -20 -14 -28 -7 -9
-18 -29 -24 -46 -6 -16 -11 -22 -11 -13 -1 21 -51 121 -65 130 -21 14 -62 8
-114 -18 -62 -31 -90 -73 -73 -110 16 -37 47 -30 73 16 18 33 28 40 48 38 21
-3 25 -8 25 -37 0 -31 7 -39 43 -58 2 -1 -14 -19 -35 -40 -44 -44 -85 -139
-72 -165 5 -9 9 -29 9 -45 l0 -28 520 -3 c287 -2 530 0 540 3 12 4 20 15 20
27 0 20 1 20 18 5 10 -10 32 -17 48 -17 22 0 26 -3 14 -10 -11 -7 -7 -10 17
-10 17 0 33 5 35 11 2 7 12 7 32 -1 16 -6 41 -8 55 -5 33 6 47 -3 61 -40 18
-47 27 -14 22 75 -5 81 4 110 34 110 28 0 65 -46 78 -95 l12 -50 45 0 c53 0
54 9 8 102 -38 74 -100 139 -148 154 -62 19 -140 147 -141 233 0 28 0 28 -47
21 -73 -11 -76 -16 -71 -117 4 -82 6 -90 34 -116 16 -15 42 -36 58 -46 28 -18
28 -20 10 -26 -10 -4 -56 -11 -101 -15 -72 -6 -84 -5 -89 10 -8 21 11 65 37
83 11 7 17 18 14 23 -8 12 -92 12 -100 -1 -3 -5 3 -31 14 -56 26 -58 27 -82 1
-31 -24 49 -47 121 -55 177 -9 58 -30 109 -57 137 -21 23 -23 23 -302 23 -255
-1 -284 -3 -316 -20z m551 -57 c13 -13 29 -106 23 -131 -8 -28 -55 -35 -140
-21 -140 22 -223 22 -321 0 -51 -11 -99 -18 -107 -15 -21 8 -21 92 -2 139 14
33 16 34 83 38 110 7 455 -1 464 -10z m-310 -263 c14 -4 32 -4 40 1 23 14 66
10 73 -7 11 -29 -4 -34 -100 -34 -98 0 -115 7 -100 45 6 16 25 15 87 -5z m924
-18 c-3 -3 -11 0 -18 7 -9 10 -8 11 6 5 10 -3 15 -9 12 -12z m-167 -169 c2 -9
-8 -13 -32 -13 -28 0 -34 3 -29 16 7 18 54 16 61 -3z"/>
<path d="M4162 10184 c-19 -10 -46 -39 -67 -73 -34 -54 -35 -59 -33 -141 l3
-85 29 0 c25 0 31 5 38 31 14 56 81 102 137 94 11 -1 13 10 8 59 -4 34 -13 77
-21 96 -17 40 -40 45 -94 19z"/>
<path d="M10494 10542 c9 -17 16 -42 16 -56 0 -37 17 -41 25 -5 5 23 2 38 -12
57 -29 39 -48 41 -29 4z"/>
<path d="M12393 8370 c0 -30 2 -43 4 -27 2 15 2 39 0 55 -2 15 -4 2 -4 -28z"/>
<path d="M7080 8519 c-23 -4 -8 -7 45 -7 80 0 91 4 25 10 -19 2 -51 0 -70 -3z"/>
<path d="M7732 7028 c-7 -7 -12 -41 -12 -84 0 -58 3 -73 17 -78 28 -11 36 9
31 83 -4 75 -15 100 -36 79z"/>
<path d="M7903 7024 c-7 -18 3 -140 13 -155 4 -6 11 -5 21 3 24 19 7 168 -18
168 -5 0 -12 -7 -16 -16z"/>
<path d="M7477 7023 c-18 -17 3 -153 23 -153 16 0 12 136 -3 149 -8 6 -17 8
-20 4z"/>
<path d="M7806 7008 c-10 -40 -6 -115 7 -125 6 -5 21 -9 32 -9 18 1 20 7 16
56 -4 66 -16 100 -35 100 -7 0 -16 -10 -20 -22z"/>
<path d="M7984 7019 c-9 -15 -9 -123 1 -138 3 -6 13 -11 21 -11 11 0 14 16 16
65 0 36 1 71 2 77 1 17 -30 22 -40 7z"/>
<path d="M8062 6948 c2 -66 6 -83 18 -83 11 0 16 16 20 62 3 34 8 65 12 69 11
11 -12 34 -34 34 -17 0 -19 -7 -16 -82z"/>
<path d="M8150 6982 c0 -79 11 -123 28 -120 21 4 32 59 25 118 -5 39 -9 46
-29 48 -22 2 -24 -2 -24 -46z"/>
<path d="M8235 6998 c-3 -18 -2 -55 3 -83 6 -41 11 -50 27 -50 18 0 20 7 20
80 0 75 -1 80 -22 83 -18 3 -23 -3 -28 -30z"/>
<path d="M8328 7018 c-3 -7 -1 -26 4 -43 4 -16 8 -46 8 -66 0 -42 5 -49 31
-42 18 5 20 13 17 82 -3 74 -4 76 -29 79 -16 2 -29 -2 -31 -10z"/>
<path d="M8425 7021 c-8 -13 5 -150 14 -156 4 -2 13 0 19 4 9 5 12 31 10 82
-2 59 -6 74 -20 77 -9 2 -19 -2 -23 -7z"/>
<path d="M8509 7018 c-3 -27 3 -143 7 -150 3 -4 12 -4 20 -1 12 4 15 18 13 52
-2 25 1 57 5 70 6 16 4 26 -5 32 -20 13 -39 11 -40 -3z"/>
<path d="M8574 7019 c-4 -7 1 -16 10 -21 12 -7 16 -24 16 -68 0 -47 3 -60 15
-60 12 0 15 16 15 80 0 78 -1 80 -24 80 -14 0 -28 -5 -32 -11z"/>
<path d="M8664 6996 c4 -19 2 -45 -4 -58 -15 -32 2 -78 27 -73 10 2 22 4 27 4
5 1 3 8 -4 16 -9 11 -9 26 -1 67 10 46 10 54 -6 65 -32 24 -46 16 -39 -21z"/>
<path d="M7218 7009 c-31 -18 -20 -134 14 -145 35 -11 48 13 48 87 0 65 -1 69
-22 69 -13 0 -31 -5 -40 -11z m42 -64 c0 -19 -4 -37 -10 -40 -6 -4 -10 12 -10
40 0 28 4 44 10 40 6 -3 10 -21 10 -40z"/>
<path d="M7618 7013 c-2 -4 -2 -39 1 -78 5 -52 10 -70 21 -70 23 0 40 46 38
100 -3 46 -5 50 -30 53 -14 2 -28 0 -30 -5z"/>
<path d="M7374 6974 c-6 -24 0 -92 10 -101 14 -15 26 15 26 68 0 45 -3 59 -15
59 -8 0 -18 -11 -21 -26z"/>
<path d="M11108 7042 c-32 -9 -58 -19 -58 -24 0 -10 122 2 134 12 9 9 0 31
-12 29 -4 0 -33 -8 -64 -17z"/>
<path d="M2323 7634 c7 -7 389 -6 396 2 2 2 -87 4 -199 4 -112 0 -200 -3 -197
-6z"/>
<path d="M2355 7600 c3 -5 8 -10 11 -10 2 0 4 5 4 10 0 6 -5 10 -11 10 -5 0
-7 -4 -4 -10z"/>
<path d="M2993 7584 c-3 -8 -3 -18 1 -21 3 -4 6 1 6 10 0 10 5 14 15 11 8 -4
15 -4 15 -1 0 14 -31 15 -37 1z"/>
<path d="M3071 7574 c0 -11 3 -14 6 -6 3 7 2 16 -1 19 -3 4 -6 -2 -5 -13z"/>
<path d="M3090 7572 c0 -15 8 -19 33 -19 30 -1 30 0 10 10 -13 5 -23 14 -23
19 0 4 -4 8 -10 8 -5 0 -10 -8 -10 -18z"/>
<path d="M2202 6691 c2 -7 7 -12 11 -12 12 1 9 15 -3 20 -7 2 -11 -2 -8 -8z"/>
<path d="M2420 6540 c0 -5 5 -10 10 -10 6 0 10 5 10 10 0 6 -4 10 -10 10 -5 0
-10 -4 -10 -10z"/>
<path d="M10263 6123 c-4 -9 -2 -18 3 -20 55 -22 80 -42 90 -71 10 -33 21 -46
111 -132 36 -34 56 -63 63 -91 8 -29 32 -64 80 -114 38 -40 82 -99 98 -131 16
-33 42 -83 57 -113 25 -50 27 -65 35 -240 6 -140 12 -196 26 -228 16 -41 19
-43 61 -43 24 0 110 5 191 11 84 6 179 7 222 3 l75 -8 -80 -8 c-44 -5 -168 -9
-277 -10 -108 0 -201 -3 -206 -7 -5 -3 -12 -19 -13 -36 l-4 -30 245 4 c135 3
309 5 387 5 99 1 146 5 154 14 10 10 -3 12 -66 13 -71 1 -76 2 -45 11 19 5 56
8 83 5 26 -2 47 0 47 4 0 13 -168 11 -175 -1 -7 -12 -91 -12 -155 -1 -40 8
-34 9 45 11 182 4 312 24 341 52 3 4 -108 6 -248 5 -182 -1 -259 2 -273 10
-16 10 2 12 101 13 l121 0 7 43 c3 23 9 94 12 157 7 115 7 115 -25 177 -20 41
-31 77 -31 105 0 79 -18 119 -80 178 -31 30 -71 65 -89 78 -30 23 -31 26 -31
95 l0 72 -43 27 c-184 117 -369 171 -667 198 -146 13 -139 13 -147 -7z m647
-421 c0 -5 -13 -21 -30 -37 -24 -23 -30 -25 -35 -12 -10 25 13 57 40 57 14 0
25 -4 25 -8z m178 -809 c-10 -2 -26 -2 -35 0 -10 3 -2 5 17 5 19 0 27 -2 18
-5z"/>
<path d="M10747 5353 c-4 -21 -11 -92 -17 -158 -14 -159 -15 -164 -50 -176
-21 -8 -30 -19 -35 -42 -4 -18 -9 -40 -12 -50 -3 -11 0 -16 8 -15 17 4 40 -43
33 -67 -4 -11 -13 -27 -20 -36 -8 -8 -14 -22 -14 -29 0 -23 79 61 89 94 8 28
22 184 36 406 5 90 -7 142 -18 73z"/>
<path d="M12392 5315 c0 -16 2 -22 5 -12 2 9 2 23 0 30 -3 6 -5 -1 -5 -18z"/>
<path d="M12380 5269 c0 -5 5 -7 10 -4 6 3 10 8 10 11 0 2 -4 4 -10 4 -5 0
-10 -5 -10 -11z"/>
<path d="M10335 4919 c-4 -5 -8 -34 -8 -64 -2 -48 0 -54 21 -58 12 -2 22 -1
23 2 5 64 5 99 -3 114 -10 19 -24 22 -33 6z"/>
<path d="M10390 4865 c0 -70 11 -86 48 -66 13 7 22 7 30 -1 8 -8 13 -3 18 18
11 47 19 51 24 15 4 -28 11 -36 33 -42 25 -7 31 -4 48 24 22 38 27 72 5 42
-12 -16 -16 -17 -30 -6 -17 15 -22 61 -6 61 6 0 10 -5 10 -12 0 -9 3 -9 12 0
18 18 -3 34 -38 30 -20 -2 -30 -10 -34 -28 l-6 -25 -8 23 c-8 25 -31 29 -40 7
-8 -23 -29 -18 -23 5 4 16 0 20 -19 20 -23 0 -24 -3 -24 -65z m52 -27 c-9 -9
-12 -7 -12 12 0 19 3 21 12 12 9 -9 9 -15 0 -24z"/>
<path d="M10222 4908 c-17 -17 -16 -108 2 -108 8 0 16 16 20 40 4 26 10 38 17
34 7 -4 8 -20 4 -41 -6 -32 -4 -34 17 -31 21 3 23 8 23 58 l0 55 -35 3 c-19 2
-41 -3 -48 -10z"/>
<path d="M1986 6111 c-4 -5 -2 -12 3 -15 5 -4 12 -2 15 3 4 5 2 12 -3 15 -5 4
-12 2 -15 -3z"/>
<path d="M1762 6078 c-19 -19 -14 -30 8 -18 11 6 20 15 20 20 0 14 -14 12 -28
-2z"/>
<path d="M1800 6079 c0 -4 18 -7 40 -7 23 0 39 2 37 5 -8 7 -77 9 -77 2z"/>
<path d="M2202 5970 c0 -14 2 -19 5 -12 2 6 2 18 0 25 -3 6 -5 1 -5 -13z"/>
<path d="M2241 5944 c0 -11 3 -14 6 -6 3 7 2 16 -1 19 -3 4 -6 -2 -5 -13z"/>
<path d="M2240 5889 c0 -11 4 -18 10 -14 5 3 7 12 3 20 -7 21 -13 19 -13 -6z"/>
<path d="M5087 5423 c-11 -10 -8 -43 3 -43 15 0 24 30 13 41 -5 5 -12 6 -16 2z"/>
<path d="M4320 5431 c0 -6 5 -13 10 -16 6 -3 10 1 10 9 0 9 -4 16 -10 16 -5 0
-10 -4 -10 -9z"/>
<path d="M4826 5418 c-7 -35 -3 -43 17 -35 9 3 12 16 9 36 -6 40 -18 40 -26
-1z"/>
<path d="M5785 5419 c-6 -19 0 -38 9 -28 10 12 16 49 7 49 -5 0 -13 -9 -16
-21z"/>
<path d="M580 3830 c0 -5 5 -10 10 -10 6 0 10 5 10 10 0 6 -4 10 -10 10 -5 0
-10 -4 -10 -10z"/>
<path d="M990 3574 c0 -9 5 -14 12 -12 18 6 21 28 4 28 -9 0 -16 -7 -16 -16z"/>
<path d="M1070 3575 c0 -9 6 -12 15 -9 8 4 15 7 15 9 0 2 -7 5 -15 9 -9 3 -15
0 -15 -9z"/>
<path d="M770 3570 c0 -5 5 -10 11 -10 5 0 7 5 4 10 -3 6 -8 10 -11 10 -2 0
-4 -4 -4 -10z"/>
<path d="M1170 3558 c0 -21 0 -21 23 -2 12 10 24 20 26 21 2 2 -8 3 -22 3 -21
0 -27 -5 -27 -22z"/>
<path d="M706 3514 c-7 -19 2 -37 15 -29 12 8 12 45 0 45 -5 0 -12 -7 -15 -16z"/>
<path d="M1002 3465 c0 -16 2 -22 5 -12 2 9 2 23 0 30 -3 6 -5 -1 -5 -18z"/>
<path d="M1110 3471 c0 -11 5 -23 10 -26 6 -3 10 3 10 14 0 11 -4 23 -10 26
-5 3 -10 -3 -10 -14z"/>
<path d="M1602 3470 c0 -14 2 -19 5 -12 2 6 2 18 0 25 -3 6 -5 1 -5 -13z"/>
<path d="M1172 3455 c0 -16 2 -22 5 -12 2 9 2 23 0 30 -3 6 -5 -1 -5 -18z"/>
<path d="M832 3440 c0 -14 2 -19 5 -12 2 6 2 18 0 25 -3 6 -5 1 -5 -13z"/>
<path d="M1703 3334 c-3 -8 -1 -20 6 -27 8 -8 11 -4 11 16 0 30 -7 35 -17 11z"/>
<path d="M1020 3331 c0 -5 5 -13 10 -16 6 -3 10 -2 10 4 0 5 -4 13 -10 16 -5
3 -10 2 -10 -4z"/>
<path d="M760 3299 c0 -11 5 -17 10 -14 6 3 10 13 10 21 0 8 -4 14 -10 14 -5
0 -10 -9 -10 -21z"/>
<path d="M825 3311 c-3 -5 -1 -12 5 -16 5 -3 10 1 10 9 0 18 -6 21 -15 7z"/>
<path d="M11430 3900 c0 -5 5 -10 10 -10 6 0 10 5 10 10 0 6 -4 10 -10 10 -5
0 -10 -4 -10 -10z"/>
<path d="M7779 2760 c-20 -5 -62 -21 -94 -35 -70 -30 -97 -31 -133 -5 -27 20
-39 21 -355 18 -278 -3 -329 -5 -337 -18 -6 -9 -9 -189 -7 -455 l2 -440 578
-3 c318 -1 576 2 573 6 -3 5 18 14 45 21 28 7 52 18 55 25 6 15 84 19 118 6
17 -6 34 -25 46 -52 19 -42 20 -43 20 -12 0 20 -9 39 -29 58 -23 22 -40 28
-99 33 -67 5 -76 4 -131 -26 -32 -17 -67 -31 -77 -31 -15 0 -16 -2 -5 -9 8 -5
-153 -9 -390 -9 -413 1 -413 1 51 22 239 11 330 18 336 27 6 10 -927 3 -1015
-7 -43 -5 -53 -4 -49 7 3 8 24 16 48 19 41 5 44 7 54 45 11 39 13 40 66 47 30
4 61 5 68 3 16 -6 17 -7 -20 71 -28 59 -33 82 -36 161 -5 117 14 184 67 244
69 79 92 83 476 83 321 1 331 0 378 -21 56 -26 107 -66 123 -97 18 -34 25
-138 13 -194 -22 -106 -121 -202 -244 -239 -70 -21 -326 -25 -385 -6 -60 19
-96 25 -85 15 19 -19 140 -43 240 -49 145 -8 295 10 359 45 28 15 52 30 54 34
2 3 16 20 33 37 22 24 29 27 29 14 0 -11 26 8 74 56 l75 74 -6 47 c-4 35 0 57
16 90 34 71 29 80 -33 54 -17 -6 -18 -4 -12 22 18 84 29 203 21 249 l-9 50
-11 -60 -10 -60 -40 -3 c-34 -2 -45 2 -70 28 -17 17 -42 52 -56 78 l-26 47
-109 2 c-60 1 -125 -3 -145 -7z m378 -462 c-2 -13 -4 -3 -4 22 0 25 2 35 4 23
2 -13 2 -33 0 -45z"/>
<path d="M7730 2403 c-64 -24 -79 -95 -31 -144 16 -16 37 -29 46 -29 25 0 72
27 89 52 48 69 -22 151 -104 121z"/>
<path d="M5160 2860 c-6 -11 -8 -20 -6 -20 3 0 10 9 16 20 6 11 8 20 6 20 -3
0 -10 -9 -16 -20z"/>
<path d="M5220 2860 c0 -5 5 -10 10 -10 6 0 10 5 10 10 0 6 -4 10 -10 10 -5 0
-10 -4 -10 -10z"/>
<path d="M5188 2843 c7 -3 16 -2 19 1 4 3 -2 6 -13 5 -11 0 -14 -3 -6 -6z"/>
<path d="M11215 2870 c-19 -8 -19 -9 3 -9 12 -1 22 4 22 9 0 6 -1 10 -2 9 -2
0 -12 -4 -23 -9z"/>
<path d="M12007 2834 c-70 -6 -134 -14 -142 -17 -7 -3 -16 -1 -19 6 -2 7 -5 5
-5 -4 -1 -11 -14 -19 -43 -24 -40 -6 -41 -8 -20 -18 16 -7 29 -7 47 3 20 10
27 11 40 0 8 -7 12 -17 8 -23 -3 -6 -1 -7 5 -3 7 4 12 1 12 -10 0 -13 3 -14
14 -5 10 9 15 8 20 -4 3 -8 13 -15 21 -15 9 0 14 -4 11 -9 -4 -5 3 -7 14 -4
11 3 20 0 20 -6 0 -6 9 -11 19 -11 11 0 32 -11 47 -25 14 -13 30 -22 35 -19 5
3 9 -2 9 -11 0 -9 4 -14 9 -11 5 3 15 -1 22 -10 8 -10 21 -13 36 -9 21 5 23 2
23 -29 0 -19 5 -38 10 -41 6 -3 10 1 10 9 0 21 39 16 51 -6 6 -12 6 -18 -1
-18 -5 0 -10 -11 -10 -25 0 -16 6 -25 16 -25 8 0 13 4 9 9 -3 5 -1 12 5 16 5
3 10 -3 10 -15 0 -18 32 -40 60 -40 15 0 0 29 -16 32 -11 2 -10 7 7 22 14 11
20 13 17 5 -3 -8 1 -20 8 -27 12 -11 14 -7 14 23 0 19 -4 35 -10 35 -5 0 -10
10 -10 23 0 16 3 18 9 8 6 -9 10 -10 16 -2 4 7 2 18 -4 24 -10 13 -4 57 8 57
4 0 8 -53 10 -117 4 -189 11 -144 10 68 -1 113 -5 179 -9 159 -7 -32 -8 -33
-15 -12 -4 12 -11 22 -15 22 -4 0 -10 8 -12 18 -8 30 -77 59 -153 64 -39 3
-127 -1 -198 -8z m343 -278 c0 -3 -4 -8 -10 -11 -5 -3 -10 -1 -10 4 0 6 5 11
10 11 6 0 10 -2 10 -4z m-20 -56 c0 -5 -4 -10 -10 -10 -5 0 -10 5 -10 10 0 6
5 10 10 10 6 0 10 -4 10 -10z"/>
<path d="M11620 2820 c0 -5 7 -10 15 -10 8 0 15 5 15 10 0 6 -7 10 -15 10 -8
0 -15 -4 -15 -10z"/>
<path d="M11747 2809 c7 -7 15 -10 18 -7 3 3 -2 9 -12 12 -14 6 -15 5 -6 -5z"/>
<path d="M9738 2707 c-13 -30 -10 -133 3 -120 5 5 9 38 7 74 -2 41 -6 57 -10
46z"/>
<path d="M10745 2630 c-3 -5 1 -10 10 -10 9 0 13 5 10 10 -3 6 -8 10 -10 10
-2 0 -7 -4 -10 -10z"/>
<path d="M2245 2134 c-20 -21 -16 -53 10 -70 45 -30 102 41 59 73 -24 18 -49
16 -69 -3z"/>
<path d="M2617 1862 c-22 -25 -21 -80 2 -118 13 -21 37 -38 75 -54 70 -28 84
-19 51 35 -26 43 -46 84 -64 128 -12 32 -40 35 -64 9z"/>
<path d="M801 1003 c0 -27 4 -70 9 -98 6 -44 7 -38 9 48 0 59 -3 97 -9 97 -5
0 -10 -21 -9 -47z"/>
<path d="M1374 615 c-9 -23 15 -71 54 -110 38 -37 60 -43 80 -23 20 20 14 37
-20 54 -36 18 -77 61 -78 82 0 17 -29 15 -36 -3z"/>
<path d="M1735 1123 c9 -36 12 -38 30 -23 14 12 14 15 -1 31 -25 27 -37 23
-29 -8z"/>
<path d="M1862 1034 c-12 -8 -22 -21 -22 -27 0 -7 5 -4 11 6 5 9 16 17 24 17
8 0 17 5 20 10 9 15 -8 12 -33 -6z"/>
<path d="M1825 911 c-4 -13 4 -35 20 -60 20 -33 31 -41 54 -41 16 0 31 6 35
15 3 8 14 15 25 15 28 0 35 17 16 36 -11 12 -26 15 -50 11 -25 -4 -33 -2 -29
7 3 7 -7 18 -21 24 -35 16 -43 15 -50 -7z"/>
<path d="M2143 813 c-4 -10 -17 -31 -30 -46 -13 -16 -23 -38 -23 -49 0 -32
-24 -15 -30 21 -6 37 -8 39 -37 20 -30 -18 -29 -22 11 -53 43 -32 84 -27 127
16 43 43 39 108 -7 108 -3 0 -8 -8 -11 -17z"/>
<path d="M2282 580 c0 -14 2 -19 5 -12 2 6 2 18 0 25 -3 6 -5 1 -5 -13z"/>
<path d="M0 11716 c0 -99 -1 -98 67 -26 38 41 40 50 11 50 -12 0 -34 14 -49
33 l-28 32 -1 -89z"/>
<path d="M1830 10160 c-8 -5 -36 -7 -62 -4 l-48 7 0 -42 c0 -45 36 -141 52
-141 6 0 32 12 58 26 61 33 84 29 88 -15 7 -67 -6 -99 -43 -112 l-34 -13 24
-45 c13 -25 28 -57 33 -71 7 -19 8 -13 4 27 -4 49 -3 53 38 95 23 23 51 63 61
87 18 41 19 47 4 91 -21 65 -47 90 -92 90 -20 0 -44 7 -52 14 -11 10 -21 12
-31 6z"/>
<path d="M1710 9880 c36 -11 52 -11 45 0 -3 6 -21 10 -38 9 -31 -1 -31 -1 -7
-9z"/>
<path d="M1648 9873 c6 -2 18 -2 25 0 6 3 1 5 -13 5 -14 0 -19 -2 -12 -5z"/>
</g>
</svg>
